<svg xmlns="http://www.w3.org/2000/svg" viewBox="0 0 20 20"><path d="M14.16992,3.33008H5.83008a2.50263,2.50263,0,0,0-2.5,2.5v8.33984a2.50263,2.50263,0,0,0,2.5,2.5h5.88965a.5.5,0,1,0,0-1H10.18011l5.48981-5.89044v1.94073a.5.5,0,0,0,1,0V5.83008A2.50263,2.50263,0,0,0,14.16992,3.33008ZM5.83008,15.66992a1.48425,1.48425,0,0,1-.62873-.14276L9.624,10.78564a.49973.49973,0,0,1,.73145.001l1.50311,1.6153-3.04614,3.268Zm6.71246-4.00171L11.08789,10.105a1.50028,1.50028,0,0,0-2.19531-.001L4.48816,14.8269a1.48193,1.48193,0,0,1-.15808-.657V5.83008a1.50164,1.50164,0,0,1,1.5-1.5h8.33984a1.50164,1.50164,0,0,1,1.5,1.5v2.483ZM7.26074,5.68555A1.47949,1.47949,0,1,0,8.74023,7.165,1.48132,1.48132,0,0,0,7.26074,5.68555Zm0,1.959A.47949.47949,0,1,1,7.74023,7.165.48.48,0,0,1,7.26074,7.64453Zm9.40918,7.30127a.49971.49971,0,0,1-.5.5h-.72461v.72412a.5.5,0,0,1-1,0V15.4458h-.72363a.5.5,0,0,1,0-1h.72363v-.72461a.5.5,0,0,1,1,0v.72461h.72461A.49971.49971,0,0,1,16.66992,14.9458Z" data-name="Add Image"/></svg>