<svg width="175.776" height="88.832" viewBox="0 0 175.776 88.832" xmlns="http://www.w3.org/2000/svg"><g id="svgGroup" stroke-linecap="round" fill-rule="evenodd" font-size="9pt" stroke="#000" stroke-width="0.25mm" fill="black" style="stroke:#000;stroke-width:0.25mm;fill:black"><path d="M 6.4 64.256 L 6.528 63.36 Q 6.654 62.731 7.151 62.782 A 0.8 0.8 0 0 1 7.168 62.784 Q 7.641 62.843 7.677 63.394 A 1.444 1.444 0 0 1 7.68 63.488 Q 7.552 65.28 7.168 66.944 A 14.645 14.645 0 0 0 6.86 68.908 A 19.278 19.278 0 0 0 6.784 70.656 L 6.784 71.04 Q 6.784 72.704 7.232 74.24 A 7.13 7.13 0 0 1 7.517 76.247 A 7.839 7.839 0 0 1 7.424 77.44 A 0.827 0.827 0 0 0 7.458 77.667 Q 7.487 77.767 7.539 77.875 A 1.838 1.838 0 0 0 7.616 78.016 A 10.824 10.824 0 0 1 7.772 78.284 Q 7.864 78.448 7.936 78.592 L 8.064 78.592 Q 8.704 80.64 9.6 82.304 Q 10.624 81.664 11.52 80.896 Q 12.416 80.128 13.184 79.36 Q 14.208 79.232 14.528 78.72 A 4.683 4.683 0 0 0 14.796 78.223 Q 14.918 77.961 15.03 77.654 A 8.719 8.719 0 0 0 15.104 77.44 Q 16.512 76.16 17.728 74.624 A 33.267 33.267 0 0 1 19.746 72.297 A 29.584 29.584 0 0 1 20.224 71.808 L 20.352 71.68 Q 20.796 70.903 21.433 71.089 A 1.196 1.196 0 0 1 21.632 71.168 Q 21.888 70.144 22.528 68.992 Q 23.296 67.84 24.192 66.752 Q 25.088 65.664 25.856 64.512 L 30.976 56.32 A 35.164 35.164 0 0 0 31.796 54.942 A 30.051 30.051 0 0 0 32.128 54.336 Q 32.64 53.376 33.28 52.48 A 1.964 1.964 0 0 1 33.785 51.967 A 2.412 2.412 0 0 1 33.984 51.84 Q 34.395 51.605 34.537 51.478 A 0.594 0.594 0 0 0 34.56 51.456 L 34.56 51.072 A 3.715 3.715 0 0 1 34.58 50.67 Q 34.628 50.234 34.787 49.966 A 1.035 1.035 0 0 1 34.816 49.92 L 34.944 49.92 Q 35.456 49.024 36.032 47.872 Q 36.608 46.72 37.248 45.952 Q 37.504 45.696 37.888 45.504 A 1.058 1.058 0 0 0 38.196 45.277 A 0.951 0.951 0 0 0 38.4 44.928 A 0.566 0.566 0 0 0 38.395 44.86 Q 38.374 44.696 38.272 44.288 Q 38.17 43.88 38.474 43.635 A 1.003 1.003 0 0 1 38.656 43.52 L 38.784 43.264 L 38.784 43.136 Q 40.014 43.013 39.885 42.535 A 0.439 0.439 0 0 0 39.872 42.496 A 1.762 1.762 0 0 1 39.779 42.121 Q 39.723 41.725 39.808 41.216 L 40.192 40.704 L 40.192 40.576 A 2.191 2.191 0 0 0 40.725 40.259 A 1.599 1.599 0 0 0 41.28 39.36 Q 41.472 38.528 41.6 37.76 A 0.429 0.429 0 0 0 41.721 37.652 Q 41.977 37.347 42.478 36.274 A 29.41 29.41 0 0 0 42.56 36.096 A 79.634 79.634 0 0 0 43.572 33.789 A 92.31 92.31 0 0 0 43.968 32.832 Q 44.531 31.45 44.808 30.927 A 2.47 2.47 0 0 1 44.928 30.72 Q 45.568 30.464 45.568 29.888 A 4.627 4.627 0 0 1 45.639 29.068 A 4.087 4.087 0 0 1 45.696 28.8 Q 45.952 28.16 45.888 27.392 Q 45.824 26.624 45.952 25.856 Q 46.208 25.088 46.4 24.192 Q 46.592 23.296 46.592 22.4 L 46.592 22.272 Q 46.476 22.041 46.465 21.601 A 3.807 3.807 0 0 1 46.464 21.504 Q 46.464 20.992 46.72 20.608 Q 46.974 20.227 47.228 19.72 A 11.741 11.741 0 0 0 47.232 19.712 L 47.232 19.584 Q 47.488 19.328 47.936 18.56 Q 48.32 17.902 48.751 17.902 A 0.596 0.596 0 0 1 48.896 17.92 Q 49.29 17.723 49.532 17.678 A 0.722 0.722 0 0 1 49.664 17.664 Q 50.304 17.664 50.944 18.304 L 51.072 18.304 L 51.584 18.432 A 1.686 1.686 0 0 0 51.774 18.092 Q 51.939 17.714 52.056 17.102 A 11.078 11.078 0 0 0 52.16 16.448 Q 52.318 15.24 52.346 14.506 A 7.782 7.782 0 0 0 52.352 14.208 L 52.352 14.08 Q 52.646 13.492 52.827 13.017 A 6.969 6.969 0 0 0 52.928 12.736 A 1.595 1.595 0 0 0 53 12.396 Q 53.044 11.971 52.904 11.415 A 4.773 4.773 0 0 0 52.864 11.264 Q 53.12 11.008 53.376 10.688 A 2.651 2.651 0 0 1 53.799 10.27 A 3.208 3.208 0 0 1 54.016 10.112 Q 54.329 10.216 54.387 10.83 A 3.267 3.267 0 0 1 54.4 11.136 Q 54.4 11.648 54.336 12.224 Q 54.277 12.754 54.272 13.014 A 2.366 2.366 0 0 0 54.272 13.056 A 0.858 0.858 0 0 0 54.212 13.225 Q 54.166 13.403 54.151 13.675 A 5.149 5.149 0 0 0 54.144 13.952 Q 53.783 14.096 53.626 14.322 A 0.679 0.679 0 0 0 53.504 14.72 Q 53.504 15.104 53.696 15.552 A 2.636 2.636 0 0 1 53.826 15.925 Q 53.88 16.135 53.887 16.329 A 1.564 1.564 0 0 1 53.888 16.384 Q 53.76 18.176 53.696 20.224 A 134.558 134.558 0 0 0 53.632 24.177 A 147.271 147.271 0 0 0 53.632 24.448 Q 53.632 30.208 54.08 36.736 Q 54.528 43.264 55.424 49.408 Q 56.32 55.552 57.6 60.416 L 57.728 60.416 L 57.728 60.8 A 2.179 2.179 0 0 0 57.878 61.584 A 2.676 2.676 0 0 0 57.984 61.824 L 58.496 62.848 L 58.496 62.976 L 59.264 64.896 A 2.69 2.69 0 0 0 59.766 66.457 A 3.345 3.345 0 0 0 59.84 66.56 Q 60.416 67.328 60.928 67.968 Q 61.056 68.736 61.12 69.056 A 0.313 0.313 0 0 0 61.241 69.237 Q 61.464 69.416 62.08 69.504 L 62.592 70.016 L 62.72 70.016 A 3.697 3.697 0 0 0 62.902 70.496 Q 63.418 71.597 64.384 71.168 L 64.512 71.296 Q 64.616 71.192 64.889 71.173 A 1.899 1.899 0 0 1 65.024 71.168 A 1.085 1.085 0 0 1 65.881 71.574 A 1.722 1.722 0 0 1 66.048 71.808 Q 66.37 72.345 66.782 72.612 A 1.684 1.684 0 0 0 66.944 72.704 L 67.072 72.832 A 0.242 0.242 0 0 0 67.236 72.761 Q 67.377 72.632 67.496 72.27 A 3.344 3.344 0 0 0 67.52 72.192 A 3.368 3.368 0 0 1 67.607 71.937 Q 67.768 71.524 67.968 71.424 A 0.59 0.59 0 0 0 68.087 71.44 Q 68.578 71.461 69.559 70.812 A 10.296 10.296 0 0 0 69.696 70.72 A 19.153 19.153 0 0 0 71.739 69.101 A 21.459 21.459 0 0 0 72.064 68.8 A 20.911 20.911 0 0 0 72.46 68.417 Q 73.039 67.84 73.245 67.52 A 0.892 0.892 0 0 0 73.344 67.328 L 73.472 67.2 Q 73.969 66.703 74.08 66.322 A 0.75 0.75 0 0 0 74.112 66.112 Q 74.112 65.664 74.88 65.024 L 76.288 62.72 L 76.288 62.592 Q 77.384 62.105 77.437 60.576 A 4.569 4.569 0 0 0 77.44 60.416 A 13.495 13.495 0 0 0 77.792 59.858 A 15.939 15.939 0 0 0 77.952 59.584 Q 78.208 59.136 78.336 58.624 L 78.336 58.496 Q 78.728 58.104 79.082 57.862 A 3.165 3.165 0 0 1 79.296 57.728 A 0.393 0.393 0 0 0 79.502 57.414 Q 79.53 57.161 79.328 56.755 A 3.521 3.521 0 0 0 79.232 56.576 L 80.512 53.504 L 80.512 53.376 L 81.408 51.712 Q 82.048 50.176 82.496 48.512 Q 82.944 46.848 83.456 45.312 Q 83.584 44.928 83.968 43.456 Q 84.352 41.984 84.8 40.448 Q 85.153 39.236 85.228 38.741 A 1.506 1.506 0 0 0 85.248 38.529 A 3.522 3.522 0 0 1 85.544 37.649 A 3.188 3.188 0 0 1 85.696 37.376 A 3.899 3.899 0 0 0 86.002 36.784 A 3.19 3.19 0 0 0 86.144 36.352 Q 86.4 33.92 87.04 31.616 L 88.32 27.008 A 2.569 2.569 0 0 1 88.159 26.608 A 2.289 2.289 0 0 1 88.128 26.496 Q 88.064 26.24 88.064 25.984 L 88.192 25.856 L 88.448 24.192 Q 88.576 23.424 89.024 22.592 A 1.627 1.627 0 0 0 89.159 22.263 Q 89.344 21.608 88.834 20.995 A 2.461 2.461 0 0 0 88.832 20.992 Q 88.704 19.968 88.448 17.792 Q 88.212 15.786 87.65 15.194 A 0.977 0.977 0 0 0 87.552 15.104 A 5.07 5.07 0 0 0 87.453 14.766 Q 87.344 14.429 87.16 13.981 A 20.105 20.105 0 0 0 87.04 13.696 Q 86.674 12.841 86.657 12.453 A 0.842 0.842 0 0 1 86.656 12.416 Q 86.656 12.063 87.036 11.818 A 1.482 1.482 0 0 1 87.104 11.776 A 2.297 2.297 0 0 1 87.429 11.621 Q 87.612 11.551 87.783 11.53 A 1.218 1.218 0 0 1 87.936 11.52 A 2.629 2.629 0 0 1 88.614 11.603 A 1.854 1.854 0 0 1 89.536 12.16 Q 90.112 12.8 90.752 13.44 L 90.88 13.568 Q 90.986 14.31 91.706 14.964 A 4.502 4.502 0 0 0 92.032 15.232 L 92.032 15.36 A 3.052 3.052 0 0 1 92.622 16.528 A 2.983 2.983 0 0 1 92.672 16.768 L 92.8 16.768 A 0.491 0.491 0 0 1 92.842 16.886 Q 92.884 17.083 92.736 17.28 A 1.094 1.094 0 0 0 92.617 17.476 Q 92.551 17.619 92.545 17.762 A 0.683 0.683 0 0 0 92.544 17.792 A 1.212 1.212 0 0 0 92.745 18.027 A 0.863 0.863 0 0 0 93.184 18.24 Q 93.486 18.29 93.708 18.38 A 1.578 1.578 0 0 1 93.824 18.432 A 2.094 2.094 0 0 1 94.366 19.402 Q 94.464 19.774 94.464 20.224 A 2.267 2.267 0 0 0 94.533 20.804 A 1.374 1.374 0 0 0 95.36 21.76 L 96.576 22.976 Q 97.152 23.552 98.048 23.936 A 0.611 0.611 0 0 1 98.268 23.875 Q 98.454 23.858 98.688 23.936 A 1.209 1.209 0 0 0 99.066 24 Q 99.261 24.001 99.456 23.936 L 99.456 23.808 L 99.584 23.808 A 2.25 2.25 0 0 1 99.688 23.71 Q 99.868 23.552 99.968 23.552 A 0.636 0.636 0 0 1 100.276 23.622 Q 100.538 23.765 100.593 24.196 A 1.989 1.989 0 0 1 100.608 24.448 A 1.085 1.085 0 0 1 100.202 25.305 A 1.722 1.722 0 0 1 99.968 25.472 L 99.584 25.728 Q 99.478 25.622 99.284 25.604 A 0.9 0.9 0 0 0 99.2 25.6 A 1.342 1.342 0 0 0 98.826 25.656 Q 98.664 25.703 98.493 25.789 A 2.594 2.594 0 0 0 98.368 25.856 Q 97.92 26.112 97.408 26.112 Q 96.95 25.769 96.646 25.527 A 18.326 18.326 0 0 1 96.576 25.472 A 1.016 1.016 0 0 0 96.263 25.306 Q 95.996 25.216 95.616 25.216 L 95.36 25.088 L 92.544 22.784 A 1.125 1.125 0 0 0 92.492 22.735 Q 92.413 22.666 92.365 22.657 A 0.075 0.075 0 0 0 92.352 22.656 L 92.288 22.656 A 0.211 0.211 0 0 0 92.086 22.786 Q 92.039 22.882 92.033 23.049 A 1.425 1.425 0 0 0 92.032 23.104 L 92.032 23.808 Q 92.16 24.32 92.16 24.704 L 92.16 25.6 Q 92.16 26.752 92.032 27.904 Q 91.904 29.056 91.776 30.08 A 4.756 4.756 0 0 0 91.462 30.424 Q 91.198 30.746 91.072 31.04 A 0.65 0.65 0 0 0 91.02 31.299 Q 91.02 31.64 91.347 32.07 A 2.976 2.976 0 0 0 91.392 32.128 Q 91.392 32.512 90.944 34.56 A 61.518 61.518 0 0 1 90.757 35.389 Q 90.44 36.748 90.24 37.248 Q 89.344 40.32 88.704 42.88 Q 88.074 45.4 86.7 48.292 A 40.213 40.213 0 0 1 86.656 48.384 Q 86.528 48.768 86.528 49.28 Q 86.528 49.792 86.272 50.176 L 86.272 50.304 L 84.736 54.4 Q 83.968 56.448 82.944 58.24 L 81.28 61.184 A 14.37 14.37 0 0 1 80.8 61.968 Q 80.562 62.328 80.324 62.634 A 8.608 8.608 0 0 1 80.256 62.72 A 10.005 10.005 0 0 0 79.76 63.4 Q 79.496 63.794 79.232 64.256 Q 78.592 65.536 77.952 66.752 A 9.26 9.26 0 0 1 76.29 68.99 A 7.071 7.071 0 0 1 76.288 68.992 L 76.288 69.12 Q 76.032 68.992 75.776 68.992 Q 75.199 68.992 74.934 69.461 A 1.25 1.25 0 0 0 74.88 69.568 A 4.939 4.939 0 0 1 74.728 69.882 Q 74.548 70.22 74.368 70.4 Q 74.262 70.506 74.068 70.524 A 0.9 0.9 0 0 1 73.984 70.528 Q 73.452 70.528 73.236 70.686 A 0.341 0.341 0 0 0 73.088 70.976 Q 73.088 71.424 72.832 71.808 L 72.704 71.808 Q 71.424 72.704 69.888 73.216 Q 68.352 73.728 66.816 73.728 Q 65.49 73.728 64.515 73.448 A 4.939 4.939 0 0 1 63.872 73.216 L 63.616 73.216 Q 63.135 71.893 61.976 72.378 A 2.486 2.486 0 0 0 61.824 72.448 L 61.696 72.32 Q 61.056 71.68 60.288 71.232 Q 59.52 70.784 58.88 70.144 Q 56.832 67.968 55.04 64.32 Q 53.668 61.527 52.971 59.222 A 20.208 20.208 0 0 1 52.608 57.856 L 52.608 57.6 Q 52.608 57.514 52.637 57.457 A 0.19 0.19 0 0 1 52.672 57.408 Q 52.725 57.355 52.734 57.258 A 0.45 0.45 0 0 0 52.736 57.216 A 1.634 1.634 0 0 0 52.623 56.628 A 2.007 2.007 0 0 0 52.544 56.448 A 2.771 2.771 0 0 0 52.329 56.086 A 2.139 2.139 0 0 0 52.096 55.808 Q 52.096 55.589 51.863 54.577 A 53.456 53.456 0 0 0 51.776 54.208 Q 51.456 52.864 51.2 51.392 Q 51.01 50.3 50.961 49.665 A 5.083 5.083 0 0 1 50.944 49.28 Q 50.944 48.384 51.136 47.872 A 0.675 0.675 0 0 0 51.18 47.658 Q 51.194 47.26 50.705 46.861 A 2.547 2.547 0 0 0 50.688 46.848 L 50.688 46.464 Q 50.688 45.44 50.496 44.48 Q 50.304 43.52 50.304 42.624 L 50.304 42.496 Q 50.304 41.216 50.24 40.128 Q 50.176 39.04 50.048 37.888 A 11.304 11.304 0 0 1 49.964 36.656 Q 49.957 36.195 49.984 35.712 Q 50.048 34.56 50.048 33.408 L 50.048 31.616 A 16.922 16.922 0 0 0 50.042 31.137 Q 50.008 29.952 49.792 29.952 A 0.336 0.336 0 0 0 49.597 30.041 Q 49.231 30.331 48.547 31.571 A 24.92 24.92 0 0 0 48.384 31.872 Q 48.136 32.368 47.226 34.129 A 1087.339 1087.339 0 0 1 47.168 34.24 Q 46.208 36.096 45.12 38.208 Q 44.032 40.32 43.2 41.856 Q 42.373 43.383 42.242 43.518 A 0.14 0.14 0 0 1 42.24 43.52 Q 42.112 44.416 41.344 45.184 L 41.344 45.312 L 39.04 49.28 L 39.04 49.408 Q 38.784 49.664 38.592 50.048 Q 38.4 50.432 38.144 50.816 L 38.144 50.944 L 36.608 53.376 L 36.608 53.504 A 8.251 8.251 0 0 0 36.181 53.688 Q 35.83 53.852 35.584 54.016 A 0.417 0.417 0 0 0 35.406 54.29 Q 35.341 54.601 35.584 55.168 L 35.584 55.296 L 34.432 57.088 L 34.432 57.216 A 3.123 3.123 0 0 0 33.779 57.705 A 2.412 2.412 0 0 0 33.216 58.56 Q 32.896 59.392 32.512 60.288 L 32.384 60.288 Q 31.744 61.44 31.04 62.72 Q 30.336 64 29.44 65.024 Q 28.8 65.92 27.136 68.032 A 26.408 26.408 0 0 0 26.433 68.962 Q 25.474 70.298 25.243 71.071 A 2.215 2.215 0 0 0 25.216 71.168 L 25.088 71.168 Q 24.96 71.68 24.512 72.128 Q 24.064 72.576 23.808 72.96 Q 21.513 76.02 18.329 79.525 A 125.676 125.676 0 0 1 18.304 79.552 A 35.754 35.754 0 0 1 15.123 82.66 A 26.532 26.532 0 0 1 11.776 85.12 A 10.247 10.247 0 0 0 14.452 87.034 A 11.174 11.174 0 0 0 14.464 87.04 A 2.445 2.445 0 0 1 14.665 87.048 Q 14.991 87.075 15.075 87.198 A 0.17 0.17 0 0 1 15.104 87.296 Q 15.104 87.552 15.36 87.808 L 15.616 87.808 Q 15.91 87.808 16.392 87.771 A 24.335 24.335 0 0 0 16.704 87.744 A 34.082 34.082 0 0 1 17.009 87.718 Q 17.468 87.68 17.664 87.68 A 1.036 1.036 0 0 1 17.906 87.706 Q 18.229 87.783 18.29 88.097 A 0.832 0.832 0 0 1 18.304 88.256 Q 18.304 88.822 17.687 88.832 A 1.385 1.385 0 0 1 17.664 88.832 Q 17.543 88.832 16.339 88.775 A 550.487 550.487 0 0 1 16.192 88.768 Q 14.899 88.706 14.85 88.586 A 0.025 0.025 0 0 1 14.848 88.576 A 2.974 2.974 0 0 0 14.754 88.402 Q 14.556 88.064 14.4 88.064 Q 14.222 88.064 13.77 87.954 A 11.127 11.127 0 0 1 13.696 87.936 A 0.975 0.975 0 0 0 13.613 87.866 Q 13.401 87.702 12.736 87.255 A 88.163 88.163 0 0 0 12.416 87.04 Q 11.468 86.408 10.953 85.949 A 4.83 4.83 0 0 1 10.752 85.76 A 19.683 19.683 0 0 1 9.212 86.55 A 22.212 22.212 0 0 1 8.832 86.72 A 5.322 5.322 0 0 1 7.488 87.115 A 4.727 4.727 0 0 1 6.784 87.168 Q 4.48 87.168 2.24 85.44 A 7.771 7.771 0 0 1 1.132 84.414 Q 0.557 83.757 0.274 83.058 A 3.683 3.683 0 0 1 0 81.664 A 7.866 7.866 0 0 1 0.182 80.019 A 10.524 10.524 0 0 1 0.576 78.656 A 22.591 22.591 0 0 0 0.736 78.197 Q 1.132 77.017 1.024 76.8 Q 1.287 76.363 1.579 75.746 A 22.231 22.231 0 0 0 1.856 75.136 Q 2.304 74.112 2.176 73.472 Q 2.416 72.993 3.215 71.001 A 227.305 227.305 0 0 0 3.328 70.72 Q 4.224 68.48 5.184 66.368 Q 6.144 64.256 6.4 64.256 Z M 125.184 47.36 L 125.184 46.72 Q 125.184 46.336 125.248 46.016 Q 125.312 45.699 125.438 45.318 A 7.887 7.887 0 0 1 125.44 45.312 Q 125.952 44.288 126.4 43.904 Q 126.778 43.58 127.201 42.801 A 10.094 10.094 0 0 0 127.36 42.496 Q 127.36 42.24 127.424 41.984 A 2.444 2.444 0 0 1 127.57 41.568 A 2.784 2.784 0 0 1 127.616 41.472 A 0.547 0.547 0 0 1 127.581 41.504 Q 127.379 41.674 127.478 41.141 A 3.855 3.855 0 0 1 127.488 41.088 A 0.058 0.058 0 0 1 127.426 41.033 Q 127.395 40.843 127.883 40.005 A 17.752 17.752 0 0 1 128 39.808 Q 128.507 38.668 128.763 38.531 A 0.213 0.213 0 0 1 128.768 38.528 L 128.896 38.528 L 129.792 37.184 Q 130.176 36.608 130.048 36.48 L 130.048 36.224 A 2.69 2.69 0 0 1 130.55 34.663 A 3.345 3.345 0 0 1 130.624 34.56 A 15.754 15.754 0 0 0 131.567 33.145 A 17.601 17.601 0 0 0 131.712 32.896 A 3.093 3.093 0 0 1 131.872 32.698 Q 132.152 32.384 132.352 32.384 A 1.591 1.591 0 0 1 132.453 32.387 Q 132.622 32.398 132.672 32.448 Q 132.725 32.501 132.822 32.51 A 0.45 0.45 0 0 0 132.864 32.512 Q 133.229 32.512 133.247 31.933 A 1.981 1.981 0 0 0 133.248 31.872 A 2.654 2.654 0 0 0 133.24 31.671 Q 133.225 31.478 133.184 31.232 Q 133.135 30.938 133.048 30.569 A 16.323 16.323 0 0 0 132.992 30.336 A 1.119 1.119 0 0 1 133.32 29.752 Q 133.471 29.603 133.688 29.476 A 2.931 2.931 0 0 1 134.016 29.312 L 134.4 29.184 Q 135.04 26.496 135.936 25.6 L 136.448 25.088 L 136.96 24.576 A 12.202 12.202 0 0 0 138.693 22.196 A 10.773 10.773 0 0 0 139.264 20.992 Q 139.52 20.48 139.968 20.16 Q 140.416 19.84 140.8 19.328 Q 141.056 18.944 140.992 18.496 Q 140.971 18.347 140.971 18.204 A 1.698 1.698 0 0 1 141.056 17.664 Q 141.695 16.642 141.951 16.512 A 6.925 6.925 0 0 0 142.188 16.388 Q 142.348 16.3 142.528 16.192 Q 142.848 16 143.744 15.104 Q 144.128 14.464 144.576 13.824 Q 145.024 13.184 145.536 12.544 A 5.469 5.469 0 0 1 146.258 11.837 A 4.049 4.049 0 0 1 147.2 11.264 A 6.205 6.205 0 0 0 148.194 10.72 A 8.309 8.309 0 0 0 148.992 10.112 A 0.758 0.758 0 0 0 149.161 9.842 Q 149.207 9.722 149.229 9.571 A 2.059 2.059 0 0 0 149.248 9.28 Q 149.248 8.704 149.504 8.448 Q 153.984 4.864 159.168 2.432 Q 163.373 0.459 166.02 0.087 A 8.268 8.268 0 0 1 167.168 0 A 15.041 15.041 0 0 1 169.092 0.12 A 13.873 13.873 0 0 1 169.152 0.128 Q 170.112 0.256 171.008 0.512 L 171.264 0.512 Q 171.904 0.512 172.544 0.768 Q 173.184 1.024 173.696 1.28 Q 174.04 1.28 174.5 1.396 A 6.611 6.611 0 0 1 174.976 1.536 Q 175.426 1.716 175.623 2.023 A 0.938 0.938 0 0 1 175.744 2.304 Q 175.866 2.791 175.524 3.046 A 0.82 0.82 0 0 1 175.488 3.072 A 0.216 0.216 0 0 1 175.331 3.136 Q 175.262 3.137 175.176 3.104 A 0.798 0.798 0 0 1 175.104 3.072 Q 174.848 2.944 174.592 2.944 Q 174.336 2.944 174.08 2.688 Q 173.824 2.432 173.568 2.304 Q 173.056 2.304 172.48 2.432 Q 171.904 2.56 171.264 2.56 L 170.88 2.56 A 3.928 3.928 0 0 1 170.474 2.541 Q 170.063 2.498 169.823 2.36 A 0.755 0.755 0 0 1 169.664 2.24 A 0.542 0.542 0 0 0 169.452 2.113 Q 169.08 1.986 168.32 2.176 Q 168.21 2.176 167.726 2.27 A 28.322 28.322 0 0 0 167.552 2.304 Q 166.934 2.428 166.674 2.432 A 1.106 1.106 0 0 1 166.656 2.432 A 23.088 23.088 0 0 0 161.104 4.578 A 20.408 20.408 0 0 0 158.592 6.208 Q 155.136 8.832 152.512 12.032 Q 149.888 15.232 147.456 18.176 Q 146.574 19.94 145.692 21.179 A 13.322 13.322 0 0 1 145.152 21.888 Q 145.026 22.014 144.901 21.769 A 0.924 0.924 0 0 1 144.896 21.76 Q 144.781 21.531 144.667 21.712 A 0.551 0.551 0 0 0 144.64 21.76 Q 144.367 22.033 144.191 22.532 A 4.135 4.135 0 0 0 144.064 22.976 A 4.683 4.683 0 0 1 143.885 23.577 Q 143.768 23.887 143.614 24.135 A 2.516 2.516 0 0 1 143.488 24.32 Q 143.362 24.446 143.237 24.201 A 0.924 0.924 0 0 1 143.232 24.192 Q 143.114 23.956 142.888 24.155 A 0.83 0.83 0 0 0 142.848 24.192 A 0.336 0.336 0 0 0 142.793 24.273 Q 142.681 24.489 142.528 25.152 A 6.013 6.013 0 0 1 142.434 25.51 Q 142.278 26.038 142.084 26.236 A 0.588 0.588 0 0 1 142.08 26.24 Q 140.544 28.288 138.752 30.208 Q 136.96 32.128 135.168 34.688 Q 132.608 38.656 130.304 42.496 Q 128 46.336 125.44 50.944 Q 124.544 52.48 124.096 53.696 Q 123.648 54.912 123.136 55.936 Q 122.923 56.256 122.887 56.754 A 2.896 2.896 0 0 0 122.88 56.96 Q 122.88 57.82 123.824 57.855 A 2.204 2.204 0 0 0 123.904 57.856 A 3.269 3.269 0 0 0 125.08 57.631 A 4.014 4.014 0 0 0 125.44 57.472 L 126.72 56.96 A 37.401 37.401 0 0 1 131.676 53.107 A 33.33 33.33 0 0 1 133.12 52.224 Q 133.206 52.224 133.263 52.195 A 0.19 0.19 0 0 0 133.312 52.16 Q 133.365 52.107 133.462 52.098 A 0.45 0.45 0 0 1 133.504 52.096 Q 133.888 52.096 134.016 52.544 Q 134.144 52.992 133.76 53.248 Q 130.048 55.296 126.848 58.496 L 126.592 59.008 Q 126.464 59.264 126.208 59.52 Q 125.952 59.776 125.504 60.416 Q 125.056 61.056 125.056 61.184 A 1.144 1.144 0 0 1 125.019 61.282 Q 124.902 61.548 124.739 61.442 A 0.269 0.269 0 0 1 124.736 61.44 A 0.155 0.155 0 0 0 124.667 61.416 Q 124.446 61.39 123.904 61.824 A 0.413 0.413 0 0 0 123.834 61.921 Q 123.757 62.065 123.712 62.336 Q 123.662 62.638 123.572 62.86 A 1.578 1.578 0 0 1 123.52 62.976 A 1.12 1.12 0 0 1 123.347 63.308 A 0.979 0.979 0 0 1 123.072 63.552 A 1.994 1.994 0 0 0 122.963 63.622 Q 122.795 63.738 122.761 63.828 A 0.123 0.123 0 0 0 122.752 63.872 A 1.452 1.452 0 0 1 122.681 64.087 Q 122.549 64.399 122.304 64.448 A 1.08 1.08 0 0 0 121.822 64.682 A 1.358 1.358 0 0 0 121.728 64.768 A 0.216 0.216 0 0 0 121.664 64.925 Q 121.663 64.994 121.696 65.08 A 0.798 0.798 0 0 0 121.728 65.152 A 0.408 0.408 0 0 1 121.764 65.253 Q 121.805 65.459 121.6 65.664 A 1.795 1.795 0 0 1 121.561 65.772 Q 121.454 66.034 121.347 65.986 A 0.099 0.099 0 0 1 121.344 65.984 Q 121.22 65.922 120.976 66.16 A 1.851 1.851 0 0 0 120.96 66.176 A 4.501 4.501 0 0 1 120.752 66.372 Q 120.437 66.65 120.243 66.683 A 0.299 0.299 0 0 1 120.192 66.688 Q 119.479 66.926 119.593 67.053 A 0.118 0.118 0 0 0 119.616 67.072 A 1.753 1.753 0 0 0 119.844 67.201 A 1.442 1.442 0 0 0 120 67.264 Q 120.17 67.321 119.688 67.628 A 5.867 5.867 0 0 1 119.552 67.712 Q 119.348 67.814 119.144 68.201 A 3.564 3.564 0 0 0 119.04 68.416 A 4.939 4.939 0 0 1 118.888 68.73 Q 118.708 69.068 118.528 69.248 A 5.074 5.074 0 0 1 118.227 69.435 Q 118.014 69.556 117.824 69.632 Q 117.504 69.76 117.12 70.144 A 7.67 7.67 0 0 1 116.601 70.621 Q 116.068 71.064 115.631 71.216 A 1.31 1.31 0 0 1 115.2 71.296 Q 114.472 71.296 114.434 70.492 A 1.932 1.932 0 0 1 114.432 70.4 Q 114.432 69.937 114.633 69.339 A 6.379 6.379 0 0 1 114.816 68.864 A 33.745 33.745 0 0 0 115.487 67.329 Q 116.151 65.713 116.927 63.471 A 121.261 121.261 0 0 0 117.184 62.72 Q 118.528 58.752 120.576 55.936 Q 121.202 54.559 122.501 52.509 A 57.284 57.284 0 0 1 122.56 52.416 Q 123.726 50.585 124.843 48.127 A 50.415 50.415 0 0 0 125.184 47.36 Z M 139.008 52.608 L 140.032 51.072 L 140.032 50.56 A 0.384 0.384 0 0 1 139.989 50.558 Q 139.946 50.553 139.925 50.537 A 0.049 0.049 0 0 1 139.904 50.496 L 139.904 50.432 A 0.601 0.601 0 0 1 139.972 50.168 Q 140.074 49.959 140.33 49.72 A 3.665 3.665 0 0 1 140.544 49.536 L 141.184 49.024 Q 141.292 48.485 141.49 48.4 A 0.195 0.195 0 0 1 141.568 48.384 Q 141.824 48.384 142.208 48 L 143.616 48 L 143.616 47.744 A 1.038 1.038 0 0 0 143.596 47.528 Q 143.508 47.116 143.04 47.168 Q 142.601 47.217 142.497 47.154 A 0.058 0.058 0 0 1 142.464 47.104 Q 142.464 46.976 142.912 46.528 L 143.488 45.952 A 11.008 11.008 0 0 0 143.835 45.464 Q 143.995 45.223 144.124 44.999 A 7.058 7.058 0 0 0 144.128 44.992 A 1.707 1.707 0 0 1 144.72 44.386 A 2.147 2.147 0 0 1 144.896 44.288 A 526.452 526.452 0 0 0 145.699 43.304 Q 147.181 41.484 147.695 40.811 A 15.499 15.499 0 0 0 147.776 40.704 Q 148.352 39.936 148.992 39.552 A 0.611 0.611 0 0 1 149.428 39.732 A 0.803 0.803 0 0 1 149.44 39.744 Q 149.625 39.929 149.393 40.174 A 0.916 0.916 0 0 1 149.376 40.192 A 1.104 1.104 0 0 0 149.441 40.28 Q 149.642 40.525 149.801 40.348 A 0.412 0.412 0 0 0 149.824 40.32 L 150.016 40.064 L 150.528 39.808 A 0.864 0.864 0 0 1 150.272 39.193 A 1.133 1.133 0 0 1 150.272 39.168 A 2.607 2.607 0 0 1 150.302 38.758 Q 150.337 38.538 150.414 38.358 A 1.293 1.293 0 0 1 150.528 38.144 Q 150.713 37.775 151.131 37.405 A 4.822 4.822 0 0 1 151.488 37.12 Q 152.127 36.655 152.186 36.507 A 0.074 0.074 0 0 0 152.192 36.48 Q 152.696 36.312 153.062 36.144 A 4.383 4.383 0 0 0 153.408 35.968 Q 153.856 35.712 154.368 35.712 Q 155.264 35.712 156.16 36.352 Q 158.25 37.452 159.773 38.552 A 20.005 20.005 0 0 1 160.256 38.912 Q 161.92 40.192 161.92 42.496 Q 161.92 44.928 159.936 46.656 A 15.793 15.793 0 0 1 157.053 48.634 A 19.852 19.852 0 0 1 155.136 49.536 A 43.155 43.155 0 0 1 150.279 51.203 A 39.055 39.055 0 0 1 149.568 51.392 Q 147.461 51.931 146.067 52.282 A 421.108 421.108 0 0 1 145.28 52.48 A 2.123 2.123 0 0 0 144.975 52.545 Q 144.396 52.717 144.448 53.184 Q 144.512 53.76 144.256 54.4 L 143.36 55.808 L 142.592 57.6 L 141.952 58.752 A 4.809 4.809 0 0 0 141.698 58.985 Q 141.255 59.424 141.255 59.714 A 0.334 0.334 0 0 0 141.312 59.904 Q 141.539 60.245 142.069 59.88 A 2.437 2.437 0 0 0 142.208 59.776 Q 142.314 59.882 142.332 60.076 A 0.9 0.9 0 0 1 142.336 60.16 A 2.564 2.564 0 0 1 142.297 60.589 Q 142.236 60.947 142.08 61.376 Q 141.884 61.915 141.763 62.266 A 21.484 21.484 0 0 0 141.696 62.464 A 2.739 2.739 0 0 0 141.675 62.555 Q 141.591 62.949 141.743 62.917 A 0.155 0.155 0 0 0 141.76 62.912 A 0.111 0.111 0 0 1 141.786 62.907 Q 141.952 62.893 141.952 63.488 L 142.08 65.28 Q 142.848 67.712 145.536 68.096 A 2.44 2.44 0 0 1 145.79 68.11 Q 145.922 68.124 146.067 68.151 A 4.136 4.136 0 0 1 146.112 68.16 A 3.637 3.637 0 0 0 146.38 68.204 Q 146.518 68.221 146.643 68.224 A 2.117 2.117 0 0 0 146.688 68.224 Q 148.992 68.224 149.184 67.84 A 1.058 1.058 0 0 1 149.411 67.532 A 0.951 0.951 0 0 1 149.76 67.328 Q 150.912 67.072 151.744 66.816 Q 152.576 66.56 153.472 66.048 Q 155.008 65.408 156.416 64.384 Q 157.824 63.36 159.36 62.336 L 160.64 61.44 Q 160.738 61.244 160.686 61.123 A 0.214 0.214 0 0 0 160.64 61.056 Q 160.512 60.928 160.64 60.8 A 0.951 0.951 0 0 1 160.763 60.748 Q 160.944 60.688 161.088 60.736 Q 161.276 60.799 161.403 60.677 A 0.356 0.356 0 0 0 161.408 60.672 A 1.164 1.164 0 0 0 161.616 60.536 Q 161.768 60.414 161.92 60.224 Q 162.176 59.904 162.432 59.648 Q 162.688 59.392 162.752 59.136 A 0.879 0.879 0 0 1 162.853 58.898 Q 162.909 58.804 162.992 58.71 A 1.758 1.758 0 0 1 163.072 58.624 Q 164.096 57.6 165.184 56.448 Q 166.272 55.296 167.04 54.4 A 8.987 8.987 0 0 1 167.388 53.933 Q 168.04 53.12 168.448 53.12 Q 168.651 53.12 168.693 53.281 A 0.377 0.377 0 0 1 168.704 53.376 A 1.383 1.383 0 0 1 168.641 53.761 Q 168.47 54.343 167.836 55.257 A 13.153 13.153 0 0 1 167.808 55.296 A 50.934 50.934 0 0 1 163.252 61.033 A 56.268 56.268 0 0 1 162.816 61.504 Q 160 64.512 156.672 66.944 Q 154.24 68.608 150.912 69.888 A 18.841 18.841 0 0 1 145.712 71.107 A 17.359 17.359 0 0 1 144.256 71.168 A 9.651 9.651 0 0 1 140.641 70.503 A 9.058 9.058 0 0 1 138.624 69.376 Q 136.192 67.584 136.192 63.232 A 15.509 15.509 0 0 1 136.528 60.063 A 17.225 17.225 0 0 1 136.576 59.84 Q 136.96 58.112 137.472 56.448 Q 137.728 54.784 138.24 53.504 A 9.301 9.301 0 0 1 138.286 53.328 Q 138.374 53 138.426 52.935 A 0.08 0.08 0 0 1 138.432 52.928 A 0.286 0.286 0 0 1 138.472 52.897 Q 138.592 52.816 139.008 52.608 Z M 109.952 40.448 L 108.928 41.984 A 6.925 6.925 0 0 1 108.804 42.22 Q 108.716 42.38 108.608 42.56 Q 108.416 42.88 108.16 43.136 Q 106.112 46.848 104.832 49.408 Q 103.616 51.841 101.937 55.544 A 327.342 327.342 0 0 0 101.76 55.936 Q 101.538 56.603 101.508 56.884 A 0.744 0.744 0 0 0 101.504 56.96 Q 101.504 57.82 102.448 57.855 A 2.204 2.204 0 0 0 102.528 57.856 A 3.269 3.269 0 0 0 103.704 57.631 A 4.014 4.014 0 0 0 104.064 57.472 L 105.344 56.96 A 37.401 37.401 0 0 1 110.3 53.107 A 33.33 33.33 0 0 1 111.744 52.224 Q 111.83 52.224 111.887 52.195 A 0.19 0.19 0 0 0 111.936 52.16 Q 111.989 52.107 112.086 52.098 A 0.45 0.45 0 0 1 112.128 52.096 Q 112.512 52.096 112.64 52.544 Q 112.768 52.992 112.384 53.248 Q 108.672 55.296 105.472 58.496 L 105.216 59.008 Q 105.088 59.264 104.832 59.52 Q 104.576 59.776 104.128 60.416 Q 103.68 61.056 103.68 61.184 A 1.144 1.144 0 0 1 103.643 61.282 Q 103.526 61.548 103.363 61.442 A 0.269 0.269 0 0 1 103.36 61.44 A 0.155 0.155 0 0 0 103.291 61.416 Q 103.07 61.39 102.528 61.824 A 0.413 0.413 0 0 0 102.458 61.921 Q 102.381 62.065 102.336 62.336 Q 102.286 62.638 102.196 62.86 A 1.578 1.578 0 0 1 102.144 62.976 A 1.12 1.12 0 0 1 101.971 63.308 A 0.979 0.979 0 0 1 101.696 63.552 A 1.994 1.994 0 0 0 101.587 63.622 Q 101.419 63.738 101.385 63.828 A 0.123 0.123 0 0 0 101.376 63.872 A 1.452 1.452 0 0 1 101.305 64.087 Q 101.173 64.399 100.928 64.448 A 1.08 1.08 0 0 0 100.446 64.682 A 1.358 1.358 0 0 0 100.352 64.768 A 0.216 0.216 0 0 0 100.288 64.925 Q 100.287 64.994 100.32 65.08 A 0.798 0.798 0 0 0 100.352 65.152 A 0.408 0.408 0 0 1 100.388 65.253 Q 100.429 65.459 100.224 65.664 A 1.795 1.795 0 0 1 100.185 65.772 Q 100.078 66.034 99.971 65.986 A 0.099 0.099 0 0 1 99.968 65.984 Q 99.844 65.922 99.6 66.16 A 1.851 1.851 0 0 0 99.584 66.176 A 4.501 4.501 0 0 1 99.376 66.372 Q 99.061 66.65 98.867 66.683 A 0.299 0.299 0 0 1 98.816 66.688 Q 98.103 66.926 98.217 67.053 A 0.118 0.118 0 0 0 98.24 67.072 A 1.753 1.753 0 0 0 98.468 67.201 A 1.442 1.442 0 0 0 98.624 67.264 Q 98.794 67.321 98.312 67.628 A 5.867 5.867 0 0 1 98.176 67.712 Q 97.972 67.814 97.768 68.201 A 3.564 3.564 0 0 0 97.664 68.416 A 4.939 4.939 0 0 1 97.512 68.73 Q 97.332 69.068 97.152 69.248 A 5.074 5.074 0 0 1 96.851 69.435 Q 96.638 69.556 96.448 69.632 Q 96.128 69.76 95.744 70.144 A 7.67 7.67 0 0 1 95.225 70.621 Q 94.692 71.064 94.255 71.216 A 1.31 1.31 0 0 1 93.824 71.296 Q 93.096 71.296 93.058 70.492 A 1.932 1.932 0 0 1 93.056 70.4 Q 93.056 69.937 93.257 69.339 A 6.379 6.379 0 0 1 93.44 68.864 A 33.745 33.745 0 0 0 94.111 67.329 Q 94.775 65.713 95.551 63.471 A 121.261 121.261 0 0 0 95.808 62.72 Q 97.152 58.752 99.2 55.936 Q 100.608 53.12 101.824 50.368 Q 103.04 47.616 104.192 44.8 L 104 44.608 A 0.669 0.669 0 0 1 103.861 44.41 A 0.601 0.601 0 0 1 103.808 44.16 A 6.219 6.219 0 0 1 103.149 43.648 Q 102.689 43.243 102.208 42.688 A 2.265 2.265 0 0 1 101.932 42.298 Q 101.505 41.521 102.016 40.704 A 2.25 2.25 0 0 1 102.12 40.606 Q 102.3 40.448 102.4 40.448 L 102.528 40.448 Q 102.528 40.362 102.499 40.305 A 0.19 0.19 0 0 0 102.464 40.256 L 102.4 40.192 A 0.764 0.764 0 0 1 102.441 39.934 Q 102.52 39.712 102.754 39.606 A 0.929 0.929 0 0 1 102.912 39.552 A 1.702 1.702 0 0 0 103.097 39.495 Q 103.281 39.426 103.362 39.331 A 0.247 0.247 0 0 0 103.424 39.168 Q 103.68 37.376 106.496 36.48 Q 108.783 35.752 110.647 35.616 A 11.496 11.496 0 0 1 111.488 35.584 Q 113.051 35.584 113.491 35.914 A 0.379 0.379 0 0 1 113.664 36.224 A 0.315 0.315 0 0 1 113.622 36.364 Q 113.485 36.629 112.896 37.12 Q 112.512 37.376 111.616 38.272 Q 110.72 39.168 109.952 40.448 Z M 146.176 50.56 A 13.045 13.045 0 0 0 147.489 50.399 Q 149.056 50.132 151.168 49.472 Q 154.24 48.512 156.288 46.848 Q 157.923 45.501 158.33 43.937 A 4.188 4.188 0 0 0 158.464 42.88 A 4.174 4.174 0 0 0 157.885 40.802 Q 157.529 40.172 156.952 39.555 A 9.603 9.603 0 0 0 156.288 38.912 Q 154.951 39.867 153.436 41.428 A 36.598 36.598 0 0 0 152.384 42.56 Q 150.272 44.928 148.608 47.168 Q 147.334 48.883 146.585 49.96 A 37.698 37.698 0 0 0 146.176 50.56 Z M 7.552 80.768 L 7.552 80.64 Q 7.296 80 7.104 79.232 A 11.863 11.863 0 0 0 6.846 78.344 A 9.635 9.635 0 0 0 6.656 77.824 L 6.528 77.824 Q 6.016 76.8 5.824 74.048 Q 5.639 71.398 5.632 70.113 A 18.188 18.188 0 0 1 5.632 70.016 Q 5.527 70.541 5.206 71.842 A 183.532 183.532 0 0 1 5.056 72.448 Q 4.608 74.24 4.288 75.968 A 51.833 51.833 0 0 0 4.163 76.666 Q 4.005 77.591 3.975 78.029 A 2.661 2.661 0 0 0 3.968 78.208 A 4.121 4.121 0 0 0 3.673 78.422 Q 3.2 78.803 3.2 79.104 A 0.742 0.742 0 0 0 3.268 79.408 Q 3.311 79.506 3.382 79.603 A 1.317 1.317 0 0 0 3.392 79.616 Q 3.584 79.872 3.712 80.256 Q 3.712 84.224 5.248 84.224 Q 5.746 84.224 6.359 83.992 A 5.536 5.536 0 0 0 6.72 83.84 Q 7.292 83.576 8.015 83.252 A 214.446 214.446 0 0 1 8.704 82.944 Q 8.606 82.747 8.583 82.626 A 0.361 0.361 0 0 1 8.576 82.56 A 0.155 0.155 0 0 0 8.546 82.472 Q 8.506 82.415 8.416 82.358 A 1.102 1.102 0 0 0 8.32 82.304 A 5.832 5.832 0 0 0 8.024 81.584 A 6.395 6.395 0 0 0 8 81.536 Q 7.808 81.152 7.552 80.768 Z M 110.72 26.624 L 111.36 26.112 L 111.36 26.24 L 111.872 25.6 L 112.128 25.6 A 1.179 1.179 0 0 0 112.627 25.499 Q 112.903 25.371 113.086 25.084 A 1.65 1.65 0 0 0 113.216 24.832 A 1.476 1.476 0 0 1 113.815 24.145 Q 114.045 24 114.349 23.9 A 3.564 3.564 0 0 1 114.688 23.808 Q 115.456 23.552 115.968 23.936 Q 116.48 24.32 117.248 24.32 Q 117.908 24.32 118.662 23.942 A 5.187 5.187 0 0 0 118.912 23.808 L 120.832 23.424 Q 121.216 23.424 121.216 23.68 A 0.273 0.273 0 0 1 121.164 23.828 Q 121.025 24.04 120.512 24.32 Q 119.97 24.615 119.694 24.835 A 1.676 1.676 0 0 0 119.552 24.96 L 119.424 25.088 L 119.296 25.344 L 118.784 25.984 Q 118.016 26.88 117.056 28.096 Q 116.096 29.312 115.072 30.08 A 8.539 8.539 0 0 1 114.56 30.451 Q 114.05 30.79 113.665 30.91 A 1.303 1.303 0 0 1 113.28 30.976 Q 112.896 30.976 112.576 30.72 Q 112.29 30.491 111.85 30.16 A 60.377 60.377 0 0 0 111.744 30.08 A 6.925 6.925 0 0 1 111.508 29.956 Q 111.348 29.868 111.168 29.76 A 0.614 0.614 0 0 1 110.897 29.409 Q 110.861 29.297 110.851 29.159 A 1.486 1.486 0 0 1 110.848 29.056 Q 110.744 28.952 110.471 28.933 A 1.899 1.899 0 0 0 110.336 28.928 A 0.636 0.636 0 0 1 110.028 28.858 Q 109.766 28.715 109.711 28.284 A 1.989 1.989 0 0 1 109.696 28.032 Q 109.696 27.194 110.382 26.785 A 2.091 2.091 0 0 1 110.72 26.624 Z" vector-effect="non-scaling-stroke"/></g></svg>