<svg width="49.437" height="24.984" viewBox="0 0 49.437 24.984" xmlns="http://www.w3.org/2000/svg"><g id="svgGroup" stroke-linecap="round" fill-rule="evenodd" font-size="9pt" stroke="#000" stroke-width="0.25mm" fill="black" style="stroke:#000;stroke-width:0.25mm;fill:black"><path d="M 1.8 18.072 L 1.836 17.82 Q 1.871 17.643 2.011 17.657 A 0.225 0.225 0 0 1 2.016 17.658 A 0.171 0.171 0 0 1 2.088 17.682 Q 2.152 17.724 2.159 17.83 A 0.406 0.406 0 0 1 2.16 17.856 Q 2.124 18.36 2.016 18.828 A 4.119 4.119 0 0 0 1.929 19.38 A 5.422 5.422 0 0 0 1.908 19.872 L 1.908 19.98 Q 1.908 20.448 2.034 20.88 A 2.005 2.005 0 0 1 2.114 21.444 A 2.205 2.205 0 0 1 2.088 21.78 A 0.232 0.232 0 0 0 2.098 21.844 Q 2.106 21.872 2.12 21.902 A 0.517 0.517 0 0 0 2.142 21.942 Q 2.188 22.019 2.222 22.083 A 1.714 1.714 0 0 1 2.232 22.104 L 2.268 22.104 A 6.37 6.37 0 0 0 2.521 22.782 A 5.269 5.269 0 0 0 2.7 23.148 Q 2.988 22.968 3.24 22.752 Q 3.492 22.536 3.708 22.32 Q 3.962 22.288 4.062 22.173 A 0.263 0.263 0 0 0 4.086 22.14 A 1.317 1.317 0 0 0 4.161 22 Q 4.208 21.902 4.248 21.78 Q 4.644 21.42 4.986 20.988 A 9.356 9.356 0 0 1 5.554 20.334 A 8.321 8.321 0 0 1 5.688 20.196 L 5.724 20.16 Q 5.868 19.908 6.084 20.016 Q 6.154 19.737 6.325 19.424 A 3.53 3.53 0 0 1 6.336 19.404 Q 6.552 19.08 6.804 18.774 Q 7.056 18.468 7.272 18.144 L 8.712 15.84 A 9.89 9.89 0 0 0 8.942 15.453 A 8.452 8.452 0 0 0 9.036 15.282 Q 9.18 15.012 9.36 14.76 A 0.552 0.552 0 0 1 9.502 14.616 A 0.678 0.678 0 0 1 9.558 14.58 Q 9.674 14.514 9.714 14.478 A 0.167 0.167 0 0 0 9.72 14.472 L 9.72 14.364 A 1.045 1.045 0 0 1 9.726 14.251 Q 9.739 14.128 9.784 14.053 A 0.291 0.291 0 0 1 9.792 14.04 L 9.828 14.04 A 9.999 9.999 0 0 0 9.974 13.775 Q 10.052 13.629 10.134 13.464 A 3.464 3.464 0 0 1 10.279 13.201 Q 10.357 13.075 10.438 12.971 A 1.984 1.984 0 0 1 10.476 12.924 A 0.617 0.617 0 0 1 10.574 12.845 A 0.804 0.804 0 0 1 10.656 12.798 A 0.298 0.298 0 0 0 10.743 12.734 A 0.267 0.267 0 0 0 10.8 12.636 Q 10.8 12.607 10.777 12.508 A 3.989 3.989 0 0 0 10.764 12.456 A 0.247 0.247 0 0 1 10.758 12.425 Q 10.747 12.332 10.821 12.272 A 0.282 0.282 0 0 1 10.872 12.24 L 10.908 12.168 L 10.908 12.132 A 1.359 1.359 0 0 0 11.006 12.119 Q 11.248 12.077 11.218 11.963 A 0.123 0.123 0 0 0 11.214 11.952 A 0.496 0.496 0 0 1 11.188 11.847 Q 11.176 11.765 11.186 11.665 A 1.124 1.124 0 0 1 11.196 11.592 L 11.304 11.448 L 11.304 11.412 A 0.616 0.616 0 0 0 11.454 11.323 A 0.45 0.45 0 0 0 11.61 11.07 Q 11.664 10.836 11.7 10.62 A 0.121 0.121 0 0 0 11.734 10.589 Q 11.806 10.504 11.947 10.202 A 8.276 8.276 0 0 0 11.97 10.152 A 22.397 22.397 0 0 0 12.255 9.503 A 25.959 25.959 0 0 0 12.366 9.234 Q 12.524 8.845 12.602 8.698 A 0.695 0.695 0 0 1 12.636 8.64 A 0.383 0.383 0 0 0 12.719 8.595 Q 12.813 8.527 12.816 8.413 A 0.286 0.286 0 0 0 12.816 8.406 A 1.301 1.301 0 0 1 12.836 8.175 A 1.149 1.149 0 0 1 12.852 8.1 Q 12.924 7.92 12.906 7.704 A 1.733 1.733 0 0 1 12.9 7.56 A 1.749 1.749 0 0 1 12.924 7.272 A 4.095 4.095 0 0 0 13.007 6.988 A 4.932 4.932 0 0 0 13.05 6.804 Q 13.104 6.552 13.104 6.3 L 13.104 6.264 A 0.269 0.269 0 0 1 13.085 6.212 Q 13.07 6.156 13.068 6.075 A 1.071 1.071 0 0 1 13.068 6.048 A 0.486 0.486 0 0 1 13.088 5.907 A 0.415 0.415 0 0 1 13.14 5.796 Q 13.211 5.689 13.283 5.546 A 4.41 4.41 0 0 0 13.284 5.544 L 13.284 5.508 Q 13.354 5.438 13.473 5.235 A 4.718 4.718 0 0 0 13.482 5.22 A 0.679 0.679 0 0 1 13.533 5.144 Q 13.618 5.035 13.711 5.035 A 0.168 0.168 0 0 1 13.752 5.04 Q 13.863 4.985 13.931 4.972 A 0.203 0.203 0 0 1 13.968 4.968 A 0.399 0.399 0 0 1 14.148 5.013 Q 14.207 5.043 14.266 5.091 A 0.895 0.895 0 0 1 14.328 5.148 L 14.364 5.148 L 14.508 5.184 Q 14.59 5.075 14.641 4.81 A 3.116 3.116 0 0 0 14.67 4.626 Q 14.714 4.286 14.722 4.08 A 2.189 2.189 0 0 0 14.724 3.996 L 14.724 3.96 Q 14.832 3.744 14.886 3.582 Q 14.935 3.434 14.879 3.21 A 1.343 1.343 0 0 0 14.868 3.168 Q 14.94 3.096 15.012 3.006 Q 15.084 2.916 15.192 2.844 A 0.12 0.12 0 0 1 15.258 2.901 Q 15.3 2.975 15.3 3.132 A 2.59 2.59 0 0 1 15.293 3.319 A 3.119 3.119 0 0 1 15.282 3.438 Q 15.265 3.587 15.264 3.66 A 0.667 0.667 0 0 0 15.264 3.672 Q 15.228 3.744 15.228 3.924 Q 15.127 3.965 15.082 4.028 A 0.191 0.191 0 0 0 15.048 4.14 Q 15.048 4.248 15.102 4.374 Q 15.152 4.491 15.156 4.592 A 0.44 0.44 0 0 1 15.156 4.608 A 25.14 25.14 0 0 0 15.118 5.266 A 30.58 30.58 0 0 0 15.102 5.688 A 37.844 37.844 0 0 0 15.084 6.8 A 41.336 41.336 0 0 0 15.084 6.876 A 47.109 47.109 0 0 0 15.133 8.985 A 56.986 56.986 0 0 0 15.21 10.332 Q 15.336 12.168 15.588 13.896 Q 15.84 15.624 16.2 16.992 L 16.236 16.992 L 16.236 17.1 A 0.613 0.613 0 0 0 16.278 17.321 A 0.753 0.753 0 0 0 16.308 17.388 L 16.452 17.676 L 16.452 17.712 L 16.668 18.252 A 0.757 0.757 0 0 0 16.809 18.691 A 0.941 0.941 0 0 0 16.83 18.72 Q 16.992 18.936 17.136 19.116 Q 17.169 19.315 17.187 19.407 A 2.784 2.784 0 0 0 17.19 19.422 A 0.088 0.088 0 0 0 17.224 19.473 Q 17.287 19.523 17.46 19.548 L 17.604 19.692 L 17.64 19.692 A 1.04 1.04 0 0 0 17.691 19.827 Q 17.836 20.137 18.108 20.016 L 18.144 20.052 A 0.092 0.092 0 0 1 18.174 20.033 Q 18.214 20.016 18.288 20.016 A 0.305 0.305 0 0 1 18.529 20.13 A 0.484 0.484 0 0 1 18.576 20.196 A 0.84 0.84 0 0 0 18.662 20.316 Q 18.738 20.403 18.828 20.448 L 18.864 20.484 Q 18.936 20.484 18.99 20.304 A 0.947 0.947 0 0 1 19.014 20.232 Q 19.06 20.116 19.116 20.088 A 0.166 0.166 0 0 0 19.15 20.093 Q 19.288 20.098 19.564 19.916 A 2.896 2.896 0 0 0 19.602 19.89 A 5.387 5.387 0 0 0 20.177 19.435 A 6.036 6.036 0 0 0 20.268 19.35 Q 20.524 19.108 20.6 18.99 A 0.251 0.251 0 0 0 20.628 18.936 L 20.664 18.9 A 1.14 1.14 0 0 0 20.741 18.816 Q 20.813 18.727 20.835 18.653 A 0.211 0.211 0 0 0 20.844 18.594 Q 20.844 18.494 20.98 18.36 A 1.3 1.3 0 0 1 21.06 18.288 L 21.456 17.64 L 21.456 17.604 A 0.511 0.511 0 0 0 21.748 17.254 Q 21.775 17.157 21.779 17.037 A 1.285 1.285 0 0 0 21.78 16.992 Q 21.852 16.884 21.924 16.758 Q 21.996 16.632 22.032 16.488 L 22.032 16.452 A 1.815 1.815 0 0 1 22.137 16.354 Q 22.191 16.308 22.242 16.274 A 0.89 0.89 0 0 1 22.302 16.236 Q 22.415 16.171 22.311 15.962 A 0.99 0.99 0 0 0 22.284 15.912 L 22.644 15.048 L 22.644 15.012 L 22.896 14.544 Q 23.076 14.112 23.202 13.644 A 16.191 16.191 0 0 1 23.436 12.853 A 14.746 14.746 0 0 1 23.472 12.744 A 1.794 1.794 0 0 0 23.488 12.693 Q 23.528 12.558 23.616 12.222 Q 23.724 11.808 23.85 11.376 A 10.684 10.684 0 0 0 23.893 11.225 Q 23.954 11.002 23.97 10.896 A 0.423 0.423 0 0 0 23.976 10.836 Q 24.012 10.656 24.102 10.512 A 1.097 1.097 0 0 0 24.188 10.346 A 0.897 0.897 0 0 0 24.228 10.224 Q 24.3 9.54 24.48 8.892 L 24.84 7.596 A 0.722 0.722 0 0 1 24.795 7.484 A 0.644 0.644 0 0 1 24.786 7.452 Q 24.768 7.38 24.768 7.308 L 24.804 7.272 L 24.876 6.804 A 1.285 1.285 0 0 1 24.944 6.559 A 1.729 1.729 0 0 1 25.038 6.354 A 0.458 0.458 0 0 0 25.076 6.261 Q 25.128 6.077 24.985 5.905 A 55.703 55.703 0 0 1 24.964 5.74 Q 24.932 5.477 24.881 5.049 A 321.605 321.605 0 0 1 24.876 5.004 Q 24.804 4.392 24.624 4.248 A 1.426 1.426 0 0 0 24.596 4.153 Q 24.556 4.029 24.48 3.852 A 2.796 2.796 0 0 1 24.435 3.742 Q 24.372 3.575 24.372 3.492 Q 24.372 3.393 24.479 3.324 A 0.417 0.417 0 0 1 24.498 3.312 A 0.646 0.646 0 0 1 24.59 3.268 Q 24.664 3.24 24.732 3.24 A 0.739 0.739 0 0 1 24.923 3.263 A 0.521 0.521 0 0 1 25.182 3.42 Q 25.344 3.6 25.524 3.78 L 25.56 3.816 Q 25.59 4.025 25.792 4.209 A 1.266 1.266 0 0 0 25.884 4.284 L 25.884 4.32 A 0.858 0.858 0 0 1 26.05 4.649 A 0.839 0.839 0 0 1 26.064 4.716 L 26.1 4.716 A 0.138 0.138 0 0 1 26.112 4.749 Q 26.124 4.805 26.082 4.86 A 0.308 0.308 0 0 0 26.049 4.915 Q 26.03 4.955 26.028 4.996 A 0.192 0.192 0 0 0 26.028 5.004 Q 26.1 5.112 26.208 5.13 A 0.855 0.855 0 0 1 26.284 5.146 Q 26.323 5.156 26.355 5.169 A 0.444 0.444 0 0 1 26.388 5.184 A 0.589 0.589 0 0 1 26.541 5.457 Q 26.565 5.548 26.568 5.657 A 1.129 1.129 0 0 1 26.568 5.688 A 0.637 0.637 0 0 0 26.587 5.851 A 0.386 0.386 0 0 0 26.82 6.12 L 27.162 6.462 A 1.167 1.167 0 0 0 27.384 6.634 A 1.546 1.546 0 0 0 27.576 6.732 A 0.172 0.172 0 0 1 27.638 6.715 Q 27.69 6.71 27.756 6.732 Q 27.81 6.75 27.864 6.75 A 0.34 0.34 0 0 0 27.972 6.732 L 27.972 6.696 L 28.008 6.696 A 0.633 0.633 0 0 1 28.037 6.668 Q 28.088 6.624 28.116 6.624 A 0.179 0.179 0 0 1 28.203 6.644 Q 28.276 6.684 28.292 6.805 A 0.559 0.559 0 0 1 28.296 6.876 A 0.305 0.305 0 0 1 28.182 7.117 A 0.484 0.484 0 0 1 28.116 7.164 L 28.008 7.236 Q 27.978 7.206 27.924 7.201 A 0.253 0.253 0 0 0 27.9 7.2 A 0.377 0.377 0 0 0 27.795 7.216 Q 27.749 7.229 27.701 7.253 A 0.729 0.729 0 0 0 27.666 7.272 Q 27.54 7.344 27.396 7.344 A 15.688 15.688 0 0 1 27.327 7.292 Q 27.243 7.228 27.182 7.18 A 5.168 5.168 0 0 1 27.162 7.164 A 0.286 0.286 0 0 0 27.074 7.117 Q 27.034 7.104 26.985 7.098 A 0.729 0.729 0 0 0 26.892 7.092 L 26.82 7.056 L 26.028 6.408 A 0.316 0.316 0 0 0 26.013 6.394 Q 25.991 6.375 25.978 6.372 A 0.021 0.021 0 0 0 25.974 6.372 L 25.956 6.372 Q 25.889 6.372 25.884 6.483 A 0.401 0.401 0 0 0 25.884 6.498 L 25.884 6.696 A 1.421 1.421 0 0 1 25.906 6.799 Q 25.915 6.852 25.918 6.9 A 0.721 0.721 0 0 1 25.92 6.948 L 25.92 7.2 Q 25.92 7.524 25.884 7.848 Q 25.848 8.172 25.812 8.46 A 1.338 1.338 0 0 0 25.724 8.557 Q 25.682 8.607 25.653 8.655 A 0.59 0.59 0 0 0 25.614 8.73 A 0.183 0.183 0 0 0 25.599 8.803 Q 25.599 8.899 25.691 9.02 A 0.837 0.837 0 0 0 25.704 9.036 Q 25.704 9.128 25.612 9.562 A 25.01 25.01 0 0 1 25.578 9.72 A 17.302 17.302 0 0 1 25.525 9.953 Q 25.452 10.268 25.401 10.419 A 1.138 1.138 0 0 1 25.38 10.476 Q 25.128 11.34 24.948 12.06 Q 24.768 12.78 24.372 13.608 Q 24.336 13.716 24.336 13.86 A 0.486 0.486 0 0 1 24.316 14.001 A 0.415 0.415 0 0 1 24.264 14.112 L 24.264 14.148 L 23.832 15.3 A 7.472 7.472 0 0 1 23.364 16.317 A 6.892 6.892 0 0 1 23.328 16.38 L 22.86 17.208 Q 22.726 17.443 22.591 17.616 A 2.425 2.425 0 0 1 22.572 17.64 A 2.814 2.814 0 0 0 22.433 17.831 Q 22.368 17.928 22.303 18.04 A 4.617 4.617 0 0 0 22.284 18.072 Q 22.104 18.432 21.924 18.774 Q 21.744 19.116 21.457 19.403 L 21.456 19.44 Q 21.384 19.404 21.312 19.404 A 0.308 0.308 0 0 0 21.207 19.421 Q 21.109 19.457 21.06 19.566 Q 20.993 19.716 20.927 19.789 A 0.349 0.349 0 0 1 20.916 19.8 A 0.113 0.113 0 0 1 20.871 19.827 Q 20.853 19.833 20.832 19.835 A 0.253 0.253 0 0 1 20.808 19.836 Q 20.658 19.836 20.598 19.88 A 0.096 0.096 0 0 0 20.556 19.962 Q 20.556 20.088 20.484 20.196 L 20.448 20.196 Q 20.088 20.448 19.656 20.592 Q 19.224 20.736 18.792 20.736 Q 18.419 20.736 18.145 20.657 A 1.389 1.389 0 0 1 17.964 20.592 L 17.892 20.592 Q 17.748 20.196 17.388 20.376 L 17.352 20.34 Q 17.172 20.16 16.956 20.034 Q 16.74 19.908 16.56 19.728 Q 15.984 19.116 15.48 18.09 A 11.658 11.658 0 0 1 15.148 17.353 Q 14.998 16.987 14.898 16.656 A 5.684 5.684 0 0 1 14.796 16.272 L 14.796 16.2 Q 14.796 16.164 14.814 16.146 Q 14.829 16.131 14.831 16.104 A 0.127 0.127 0 0 0 14.832 16.092 A 0.46 0.46 0 0 0 14.8 15.927 A 0.565 0.565 0 0 0 14.778 15.876 A 0.779 0.779 0 0 0 14.718 15.774 A 0.602 0.602 0 0 0 14.652 15.696 A 0.312 0.312 0 0 0 14.649 15.658 Q 14.638 15.572 14.586 15.35 A 15.035 15.035 0 0 0 14.562 15.246 Q 14.472 14.868 14.4 14.454 Q 14.347 14.147 14.333 13.968 A 1.43 1.43 0 0 1 14.328 13.86 Q 14.328 13.608 14.382 13.464 Q 14.436 13.32 14.256 13.176 L 14.256 13.068 Q 14.256 12.78 14.202 12.51 Q 14.148 12.24 14.148 11.988 L 14.148 11.952 Q 14.148 11.592 14.13 11.286 A 12.051 12.051 0 0 0 14.085 10.737 A 13.216 13.216 0 0 0 14.076 10.656 Q 14.04 10.368 14.058 10.044 Q 14.076 9.72 14.076 9.396 L 14.076 8.892 Q 14.076 8.424 14.004 8.424 A 0.094 0.094 0 0 0 13.949 8.449 Q 13.846 8.531 13.654 8.879 A 7.009 7.009 0 0 0 13.608 8.964 A 12.398 12.398 0 0 1 13.574 9.031 Q 13.489 9.199 13.282 9.599 A 315.628 315.628 0 0 1 13.266 9.63 Q 12.996 10.152 12.69 10.746 A 75.224 75.224 0 0 1 12.471 11.169 Q 12.296 11.502 12.15 11.772 A 27.962 27.962 0 0 1 12.095 11.874 Q 11.95 12.137 11.9 12.213 A 0.21 0.21 0 0 1 11.88 12.24 A 0.748 0.748 0 0 1 11.755 12.555 A 1.038 1.038 0 0 1 11.628 12.708 L 11.628 12.744 L 10.98 13.86 L 10.98 13.896 A 0.617 0.617 0 0 0 10.901 13.994 A 0.804 0.804 0 0 0 10.854 14.076 A 1.981 1.981 0 0 1 10.748 14.262 A 2.214 2.214 0 0 1 10.728 14.292 L 10.728 14.328 L 10.296 15.012 L 10.296 15.048 Q 10.166 15.1 10.074 15.152 A 1.02 1.02 0 0 0 10.008 15.192 A 0.117 0.117 0 0 0 9.958 15.269 Q 9.94 15.357 10.008 15.516 L 10.008 15.552 L 9.684 16.056 L 9.684 16.092 A 0.878 0.878 0 0 0 9.5 16.23 A 0.678 0.678 0 0 0 9.342 16.47 Q 9.252 16.704 9.144 16.956 L 9.108 16.956 Q 8.928 17.28 8.73 17.64 A 3.726 3.726 0 0 1 8.373 18.177 A 3.375 3.375 0 0 1 8.28 18.288 Q 8.1 18.54 7.632 19.134 A 7.427 7.427 0 0 0 7.434 19.396 Q 7.164 19.771 7.1 19.989 A 0.623 0.623 0 0 0 7.092 20.016 L 7.056 20.016 A 0.525 0.525 0 0 1 6.976 20.189 A 0.714 0.714 0 0 1 6.894 20.286 Q 6.768 20.412 6.696 20.52 Q 6.051 21.381 5.155 22.366 A 41.384 41.384 0 0 1 5.148 22.374 A 10.056 10.056 0 0 1 4.253 23.248 A 7.462 7.462 0 0 1 3.312 23.94 A 2.882 2.882 0 0 0 4.065 24.478 A 3.314 3.314 0 0 0 4.068 24.48 A 0.688 0.688 0 0 1 4.125 24.482 Q 4.248 24.492 4.248 24.552 Q 4.248 24.624 4.32 24.696 L 4.392 24.696 Q 4.475 24.696 4.61 24.685 A 6.844 6.844 0 0 0 4.698 24.678 A 9.585 9.585 0 0 1 4.784 24.671 Q 4.89 24.662 4.946 24.66 A 0.803 0.803 0 0 1 4.968 24.66 A 0.291 0.291 0 0 1 5.036 24.667 Q 5.127 24.689 5.144 24.777 A 0.234 0.234 0 0 1 5.148 24.822 A 0.208 0.208 0 0 1 5.138 24.889 Q 5.106 24.984 4.968 24.984 A 0.563 0.563 0 0 1 4.954 24.984 Q 4.885 24.982 4.554 24.966 A 6.563 6.563 0 0 1 4.465 24.961 Q 4.189 24.944 4.177 24.915 A 0.007 0.007 0 0 1 4.176 24.912 Q 4.104 24.768 4.05 24.768 Q 3.996 24.768 3.852 24.732 Q 3.821 24.701 3.582 24.54 A 24.813 24.813 0 0 0 3.492 24.48 A 6.285 6.285 0 0 1 3.341 24.377 Q 3.181 24.263 3.081 24.173 A 1.359 1.359 0 0 1 3.024 24.12 A 5.536 5.536 0 0 1 2.591 24.342 A 6.247 6.247 0 0 1 2.484 24.39 A 1.497 1.497 0 0 1 2.106 24.501 A 1.33 1.33 0 0 1 1.908 24.516 A 1.849 1.849 0 0 1 1.105 24.326 A 2.646 2.646 0 0 1 0.63 24.03 Q 0.22 23.714 0.077 23.36 A 1.036 1.036 0 0 1 0 22.968 A 2.212 2.212 0 0 1 0.051 22.505 A 2.96 2.96 0 0 1 0.162 22.122 A 6.353 6.353 0 0 0 0.207 21.993 Q 0.306 21.699 0.293 21.618 A 0.062 0.062 0 0 0 0.288 21.601 A 2.837 2.837 0 0 0 0.37 21.453 Q 0.406 21.384 0.444 21.303 A 6.252 6.252 0 0 0 0.522 21.132 A 1.548 1.548 0 0 0 0.574 20.998 Q 0.639 20.8 0.612 20.664 A 1.996 1.996 0 0 0 0.645 20.593 Q 0.724 20.417 0.904 19.969 A 63.956 63.956 0 0 0 0.936 19.89 Q 1.188 19.26 1.458 18.666 Q 1.727 18.073 1.8 18.072 Z M 35.208 13.32 L 35.208 13.14 Q 35.208 13.032 35.226 12.942 Q 35.244 12.852 35.28 12.744 A 2.627 2.627 0 0 1 35.351 12.611 Q 35.43 12.473 35.504 12.393 A 0.544 0.544 0 0 1 35.55 12.348 A 0.623 0.623 0 0 0 35.626 12.268 Q 35.698 12.18 35.775 12.038 A 2.839 2.839 0 0 0 35.82 11.952 Q 35.82 11.88 35.838 11.808 A 0.687 0.687 0 0 1 35.879 11.691 A 0.783 0.783 0 0 1 35.892 11.664 A 0.154 0.154 0 0 1 35.882 11.673 Q 35.823 11.723 35.856 11.556 Q 35.784 11.556 36 11.196 A 3.854 3.854 0 0 1 36.051 11.085 Q 36.156 10.868 36.214 10.837 A 0.06 0.06 0 0 1 36.216 10.836 L 36.252 10.836 L 36.504 10.458 A 1.234 1.234 0 0 0 36.532 10.415 Q 36.607 10.291 36.576 10.26 L 36.576 10.188 A 0.757 0.757 0 0 1 36.717 9.749 A 0.941 0.941 0 0 1 36.738 9.72 A 4.431 4.431 0 0 0 37.003 9.322 A 4.95 4.95 0 0 0 37.044 9.252 Q 37.152 9.108 37.224 9.108 A 0.448 0.448 0 0 1 37.252 9.109 Q 37.294 9.112 37.31 9.123 A 0.03 0.03 0 0 1 37.314 9.126 Q 37.329 9.141 37.356 9.143 A 0.127 0.127 0 0 0 37.368 9.144 A 0.09 0.09 0 0 0 37.454 9.091 Q 37.474 9.051 37.476 8.981 A 0.557 0.557 0 0 0 37.476 8.964 A 0.746 0.746 0 0 0 37.474 8.908 Q 37.472 8.88 37.468 8.85 A 1.702 1.702 0 0 0 37.458 8.784 A 2.452 2.452 0 0 0 37.442 8.698 Q 37.432 8.65 37.42 8.598 A 4.591 4.591 0 0 0 37.404 8.532 Q 37.433 8.388 37.6 8.29 A 0.824 0.824 0 0 1 37.692 8.244 L 37.8 8.208 Q 37.98 7.452 38.232 7.2 L 38.376 7.056 L 38.52 6.912 A 3.432 3.432 0 0 0 39.007 6.243 A 3.03 3.03 0 0 0 39.168 5.904 Q 39.24 5.76 39.366 5.67 Q 39.492 5.58 39.6 5.436 Q 39.672 5.328 39.654 5.202 A 0.584 0.584 0 0 1 39.648 5.126 Q 39.647 5.043 39.672 4.968 A 4.346 4.346 0 0 1 39.736 4.869 Q 39.865 4.674 39.924 4.644 Q 39.986 4.613 40.061 4.569 A 3.394 3.394 0 0 0 40.086 4.554 Q 40.16 4.509 40.345 4.33 A 8.21 8.21 0 0 0 40.428 4.248 Q 40.536 4.068 40.662 3.888 Q 40.788 3.708 40.932 3.528 A 1.538 1.538 0 0 1 41.135 3.329 A 1.139 1.139 0 0 1 41.4 3.168 A 1.745 1.745 0 0 0 41.68 3.015 A 2.337 2.337 0 0 0 41.904 2.844 Q 41.956 2.792 41.971 2.692 A 0.579 0.579 0 0 0 41.976 2.61 A 0.575 0.575 0 0 1 41.982 2.526 Q 41.988 2.484 42.001 2.45 A 0.212 0.212 0 0 1 42.048 2.376 Q 43.308 1.368 44.766 0.684 A 12.258 12.258 0 0 1 45.494 0.369 Q 46.193 0.095 46.693 0.024 A 2.325 2.325 0 0 1 47.016 0 A 4.23 4.23 0 0 1 47.557 0.034 A 3.902 3.902 0 0 1 47.574 0.036 Q 47.844 0.072 48.096 0.144 L 48.168 0.144 Q 48.348 0.144 48.528 0.216 Q 48.708 0.288 48.852 0.36 Q 48.949 0.36 49.078 0.393 A 1.859 1.859 0 0 1 49.212 0.432 A 0.491 0.491 0 0 1 49.306 0.481 Q 49.362 0.519 49.394 0.569 A 0.264 0.264 0 0 1 49.428 0.648 A 0.316 0.316 0 0 1 49.435 0.683 Q 49.45 0.794 49.366 0.857 A 0.231 0.231 0 0 1 49.356 0.864 Q 49.325 0.895 49.268 0.873 A 0.225 0.225 0 0 1 49.248 0.864 Q 49.176 0.828 49.104 0.828 Q 49.032 0.828 48.96 0.756 Q 48.888 0.684 48.816 0.648 A 1.304 1.304 0 0 0 48.629 0.662 A 1.619 1.619 0 0 0 48.51 0.684 Q 48.348 0.72 48.168 0.72 L 48.06 0.72 Q 47.808 0.72 47.718 0.63 Q 47.628 0.54 47.34 0.612 Q 47.304 0.612 47.124 0.648 A 3.777 3.777 0 0 1 47.043 0.663 Q 46.932 0.683 46.877 0.684 A 0.31 0.31 0 0 1 46.872 0.684 A 6.493 6.493 0 0 0 45.311 1.288 A 5.74 5.74 0 0 0 44.604 1.746 Q 43.632 2.484 42.894 3.384 Q 42.156 4.284 41.472 5.112 Q 41.148 5.76 40.824 6.156 Q 40.789 6.191 40.753 6.123 A 0.258 0.258 0 0 1 40.752 6.12 A 0.155 0.155 0 0 0 40.744 6.106 Q 40.716 6.062 40.688 6.106 A 0.155 0.155 0 0 0 40.68 6.12 Q 40.572 6.228 40.518 6.462 A 1.317 1.317 0 0 1 40.468 6.631 Q 40.422 6.752 40.356 6.84 Q 40.321 6.875 40.285 6.807 A 0.258 0.258 0 0 1 40.284 6.804 Q 40.248 6.732 40.176 6.804 A 0.095 0.095 0 0 0 40.161 6.827 Q 40.129 6.888 40.086 7.074 A 1.691 1.691 0 0 1 40.06 7.175 Q 40.016 7.323 39.961 7.379 A 0.167 0.167 0 0 1 39.96 7.38 Q 39.528 7.956 39.024 8.496 Q 38.52 9.036 38.016 9.756 Q 37.296 10.872 36.648 11.952 Q 36 13.032 35.28 14.328 A 6.696 6.696 0 0 0 35.109 14.639 Q 35.029 14.795 34.968 14.937 A 3.445 3.445 0 0 0 34.902 15.102 A 6.659 6.659 0 0 1 34.737 15.508 A 5.527 5.527 0 0 1 34.632 15.732 A 0.394 0.394 0 0 0 34.58 15.849 Q 34.56 15.924 34.56 16.02 Q 34.56 16.262 34.825 16.272 A 0.62 0.62 0 0 0 34.848 16.272 A 0.919 0.919 0 0 0 35.179 16.209 A 1.129 1.129 0 0 0 35.28 16.164 L 35.64 16.02 A 10.519 10.519 0 0 1 37.034 14.936 A 9.374 9.374 0 0 1 37.44 14.688 Q 37.476 14.688 37.494 14.67 Q 37.509 14.655 37.536 14.653 A 0.127 0.127 0 0 1 37.548 14.652 A 0.138 0.138 0 0 1 37.619 14.67 Q 37.67 14.699 37.692 14.778 Q 37.728 14.904 37.62 14.976 A 8.587 8.587 0 0 0 35.846 16.286 A 9.656 9.656 0 0 0 35.676 16.452 L 35.604 16.596 Q 35.568 16.668 35.496 16.74 A 0.805 0.805 0 0 0 35.457 16.783 Q 35.393 16.857 35.298 16.992 Q 35.18 17.16 35.173 17.203 A 0.03 0.03 0 0 0 35.172 17.208 A 0.322 0.322 0 0 1 35.162 17.236 Q 35.133 17.301 35.094 17.286 A 0.06 0.06 0 0 1 35.083 17.28 A 0.044 0.044 0 0 0 35.063 17.273 Q 35.009 17.267 34.887 17.358 A 1.468 1.468 0 0 0 34.848 17.388 Q 34.819 17.417 34.802 17.493 A 0.673 0.673 0 0 0 34.794 17.532 A 0.855 0.855 0 0 1 34.778 17.608 Q 34.768 17.647 34.755 17.679 A 0.444 0.444 0 0 1 34.74 17.712 A 0.315 0.315 0 0 1 34.691 17.805 A 0.275 0.275 0 0 1 34.614 17.874 Q 34.539 17.919 34.526 17.952 A 0.035 0.035 0 0 0 34.524 17.964 A 0.408 0.408 0 0 1 34.504 18.025 Q 34.47 18.106 34.408 18.124 A 0.123 0.123 0 0 1 34.398 18.126 A 0.304 0.304 0 0 0 34.262 18.192 A 0.382 0.382 0 0 0 34.236 18.216 Q 34.205 18.247 34.227 18.304 A 0.225 0.225 0 0 0 34.236 18.324 A 0.115 0.115 0 0 1 34.246 18.353 Q 34.258 18.41 34.2 18.468 A 0.505 0.505 0 0 1 34.189 18.498 Q 34.158 18.573 34.128 18.558 Q 34.093 18.541 34.025 18.607 A 0.521 0.521 0 0 0 34.02 18.612 Q 33.89 18.742 33.818 18.755 A 0.084 0.084 0 0 1 33.804 18.756 Q 33.588 18.828 33.642 18.864 A 0.493 0.493 0 0 0 33.706 18.9 A 0.405 0.405 0 0 0 33.75 18.918 Q 33.798 18.934 33.662 19.02 A 1.65 1.65 0 0 1 33.624 19.044 A 0.163 0.163 0 0 0 33.582 19.076 Q 33.545 19.113 33.509 19.182 A 1.002 1.002 0 0 0 33.48 19.242 Q 33.413 19.392 33.347 19.465 A 0.349 0.349 0 0 1 33.336 19.476 A 1.427 1.427 0 0 1 33.251 19.529 Q 33.208 19.553 33.169 19.571 A 0.759 0.759 0 0 1 33.138 19.584 Q 33.077 19.608 33.007 19.666 A 0.995 0.995 0 0 0 32.94 19.728 Q 32.701 19.967 32.521 20.03 A 0.369 0.369 0 0 1 32.4 20.052 A 0.263 0.263 0 0 1 32.308 20.037 Q 32.193 19.994 32.185 19.826 A 0.543 0.543 0 0 1 32.184 19.8 A 0.758 0.758 0 0 1 32.199 19.655 Q 32.225 19.526 32.292 19.368 Q 32.58 18.756 32.958 17.64 Q 33.336 16.524 33.912 15.732 Q 34.088 15.345 34.453 14.768 A 16.111 16.111 0 0 1 34.47 14.742 Q 34.798 14.227 35.112 13.536 A 14.178 14.178 0 0 0 35.208 13.32 Z M 39.096 14.796 L 39.384 14.364 L 39.384 14.22 A 0.108 0.108 0 0 1 39.372 14.219 Q 39.36 14.218 39.354 14.214 A 0.014 0.014 0 0 1 39.348 14.202 L 39.348 14.184 Q 39.348 14.096 39.468 13.984 A 1.031 1.031 0 0 1 39.528 13.932 L 39.708 13.788 Q 39.738 13.637 39.794 13.613 A 0.055 0.055 0 0 1 39.816 13.608 A 0.13 0.13 0 0 0 39.865 13.597 Q 39.922 13.574 39.996 13.5 L 40.392 13.5 L 40.392 13.428 A 0.292 0.292 0 0 0 40.386 13.367 Q 40.362 13.251 40.23 13.266 Q 40.068 13.284 40.068 13.248 A 0.047 0.047 0 0 1 40.074 13.229 Q 40.094 13.187 40.187 13.093 A 2.436 2.436 0 0 1 40.194 13.086 L 40.356 12.924 Q 40.463 12.781 40.535 12.656 A 1.786 1.786 0 0 0 40.536 12.654 A 0.48 0.48 0 0 1 40.703 12.484 A 0.604 0.604 0 0 1 40.752 12.456 A 148.036 148.036 0 0 0 40.978 12.179 Q 41.395 11.667 41.539 11.478 A 4.355 4.355 0 0 0 41.562 11.448 A 1.544 1.544 0 0 1 41.702 11.285 Q 41.8 11.186 41.904 11.124 A 0.172 0.172 0 0 1 42.027 11.175 A 0.227 0.227 0 0 1 42.03 11.178 A 0.091 0.091 0 0 1 42.044 11.196 Q 42.072 11.244 42.012 11.304 Q 42.084 11.412 42.138 11.34 L 42.192 11.268 L 42.336 11.196 A 0.243 0.243 0 0 1 42.264 11.023 A 0.319 0.319 0 0 1 42.264 11.016 Q 42.264 10.882 42.304 10.788 A 0.364 0.364 0 0 1 42.336 10.728 A 0.57 0.57 0 0 1 42.408 10.62 Q 42.449 10.57 42.506 10.52 A 1.356 1.356 0 0 1 42.606 10.44 A 3.179 3.179 0 0 0 42.671 10.392 Q 42.789 10.301 42.802 10.268 A 0.021 0.021 0 0 0 42.804 10.26 Q 43.02 10.188 43.146 10.116 Q 43.272 10.044 43.416 10.044 A 0.764 0.764 0 0 1 43.723 10.111 A 1.085 1.085 0 0 1 43.92 10.224 Q 44.604 10.584 45.072 10.944 A 1.166 1.166 0 0 1 45.533 11.795 A 1.655 1.655 0 0 1 45.54 11.952 Q 45.54 12.636 44.982 13.122 A 4.442 4.442 0 0 1 44.171 13.678 A 5.583 5.583 0 0 1 43.632 13.932 Q 42.84 14.256 42.066 14.454 Q 41.292 14.652 40.86 14.76 A 0.597 0.597 0 0 0 40.774 14.778 Q 40.625 14.823 40.625 14.937 A 0.19 0.19 0 0 0 40.626 14.958 Q 40.644 15.12 40.572 15.3 L 40.32 15.696 L 40.104 16.2 L 39.924 16.524 A 1.353 1.353 0 0 0 39.852 16.59 Q 39.683 16.757 39.744 16.848 A 0.112 0.112 0 0 0 39.772 16.878 Q 39.847 16.931 39.996 16.812 Q 40.026 16.842 40.031 16.898 A 0.255 0.255 0 0 1 40.032 16.92 A 0.721 0.721 0 0 1 40.021 17.041 Q 40.011 17.1 39.991 17.167 A 1.577 1.577 0 0 1 39.96 17.262 Q 39.905 17.414 39.871 17.512 A 6.042 6.042 0 0 0 39.852 17.568 Q 39.818 17.705 39.865 17.695 A 0.044 0.044 0 0 0 39.87 17.694 A 0.031 0.031 0 0 1 39.877 17.692 Q 39.924 17.689 39.924 17.854 A 1.287 1.287 0 0 1 39.924 17.856 L 39.96 18.36 A 1.159 1.159 0 0 0 40.205 18.799 Q 40.4 19.014 40.712 19.105 A 1.58 1.58 0 0 0 40.932 19.152 A 0.686 0.686 0 0 1 41.003 19.156 Q 41.046 19.16 41.094 19.17 A 1.023 1.023 0 0 0 41.169 19.182 Q 41.208 19.187 41.243 19.188 A 0.596 0.596 0 0 0 41.256 19.188 A 6 6 0 0 0 41.47 19.185 Q 41.876 19.17 41.948 19.094 A 0.06 0.06 0 0 0 41.958 19.08 A 0.298 0.298 0 0 1 42.022 18.993 A 0.267 0.267 0 0 1 42.12 18.936 Q 42.444 18.864 42.678 18.792 A 2.165 2.165 0 0 0 42.947 18.688 A 2.801 2.801 0 0 0 43.164 18.576 Q 43.596 18.396 43.992 18.108 Q 44.388 17.82 44.82 17.532 L 45.18 17.28 Q 45.208 17.225 45.193 17.191 A 0.06 0.06 0 0 0 45.18 17.172 Q 45.147 17.139 45.174 17.106 A 0.09 0.09 0 0 1 45.18 17.1 A 0.267 0.267 0 0 1 45.215 17.085 Q 45.265 17.068 45.306 17.082 Q 45.36 17.1 45.396 17.064 A 0.327 0.327 0 0 0 45.455 17.026 Q 45.497 16.991 45.54 16.938 Q 45.612 16.848 45.684 16.776 Q 45.739 16.721 45.763 16.665 A 0.226 0.226 0 0 0 45.774 16.632 A 0.247 0.247 0 0 1 45.802 16.565 Q 45.825 16.527 45.864 16.488 Q 46.152 16.2 46.458 15.876 A 21.415 21.415 0 0 0 46.675 15.643 Q 46.845 15.458 46.98 15.3 A 2.528 2.528 0 0 1 47.078 15.169 Q 47.224 14.986 47.327 14.949 A 0.146 0.146 0 0 1 47.376 14.94 Q 47.433 14.94 47.445 14.985 A 0.106 0.106 0 0 1 47.448 15.012 Q 47.448 15.189 47.204 15.541 A 3.687 3.687 0 0 1 47.196 15.552 A 14.325 14.325 0 0 1 45.915 17.165 A 15.823 15.823 0 0 1 45.792 17.298 Q 45 18.144 44.064 18.828 A 6.87 6.87 0 0 1 43.266 19.295 A 9.164 9.164 0 0 1 42.444 19.656 A 5.299 5.299 0 0 1 40.982 19.999 A 4.882 4.882 0 0 1 40.572 20.016 A 2.714 2.714 0 0 1 39.555 19.829 A 2.547 2.547 0 0 1 38.988 19.512 Q 38.304 19.008 38.304 17.784 A 4.362 4.362 0 0 1 38.399 16.893 A 4.843 4.843 0 0 1 38.412 16.83 Q 38.52 16.344 38.664 15.876 Q 38.736 15.408 38.88 15.048 Q 38.914 14.911 38.932 14.888 A 0.022 0.022 0 0 1 38.934 14.886 Q 38.949 14.871 39.057 14.816 A 5.302 5.302 0 0 1 39.096 14.796 Z M 30.924 11.376 L 30.636 11.808 Q 30.605 11.87 30.561 11.945 A 3.394 3.394 0 0 1 30.546 11.97 Q 30.492 12.06 30.42 12.132 A 76.95 76.95 0 0 0 30.146 12.634 Q 29.754 13.356 29.484 13.896 Q 29.142 14.58 28.67 15.622 A 92.193 92.193 0 0 0 28.62 15.732 A 3.581 3.581 0 0 0 28.592 15.82 Q 28.555 15.939 28.549 15.999 A 0.209 0.209 0 0 0 28.548 16.02 Q 28.548 16.262 28.813 16.272 A 0.62 0.62 0 0 0 28.836 16.272 A 0.919 0.919 0 0 0 29.167 16.209 A 1.129 1.129 0 0 0 29.268 16.164 L 29.628 16.02 A 10.519 10.519 0 0 1 31.022 14.936 A 9.374 9.374 0 0 1 31.428 14.688 Q 31.464 14.688 31.482 14.67 Q 31.497 14.655 31.524 14.653 A 0.127 0.127 0 0 1 31.536 14.652 A 0.138 0.138 0 0 1 31.607 14.67 Q 31.658 14.699 31.68 14.778 Q 31.716 14.904 31.608 14.976 A 8.587 8.587 0 0 0 29.834 16.286 A 9.656 9.656 0 0 0 29.664 16.452 L 29.592 16.596 Q 29.556 16.668 29.484 16.74 A 0.805 0.805 0 0 0 29.445 16.783 Q 29.381 16.857 29.286 16.992 Q 29.168 17.16 29.161 17.203 A 0.03 0.03 0 0 0 29.16 17.208 A 0.322 0.322 0 0 1 29.15 17.236 Q 29.121 17.301 29.082 17.286 A 0.06 0.06 0 0 1 29.071 17.28 A 0.044 0.044 0 0 0 29.051 17.273 Q 28.997 17.267 28.875 17.358 A 1.468 1.468 0 0 0 28.836 17.388 Q 28.807 17.417 28.79 17.493 A 0.673 0.673 0 0 0 28.782 17.532 A 0.855 0.855 0 0 1 28.766 17.608 Q 28.756 17.647 28.743 17.679 A 0.444 0.444 0 0 1 28.728 17.712 A 0.315 0.315 0 0 1 28.679 17.805 A 0.275 0.275 0 0 1 28.602 17.874 Q 28.527 17.919 28.514 17.952 A 0.035 0.035 0 0 0 28.512 17.964 A 0.408 0.408 0 0 1 28.492 18.025 Q 28.458 18.106 28.396 18.124 A 0.123 0.123 0 0 1 28.386 18.126 A 0.304 0.304 0 0 0 28.25 18.192 A 0.382 0.382 0 0 0 28.224 18.216 Q 28.193 18.247 28.215 18.304 A 0.225 0.225 0 0 0 28.224 18.324 A 0.115 0.115 0 0 1 28.234 18.353 Q 28.246 18.41 28.188 18.468 A 0.505 0.505 0 0 1 28.177 18.498 Q 28.146 18.573 28.116 18.558 Q 28.081 18.541 28.013 18.607 A 0.521 0.521 0 0 0 28.008 18.612 Q 27.878 18.742 27.806 18.755 A 0.084 0.084 0 0 1 27.792 18.756 Q 27.576 18.828 27.63 18.864 A 0.493 0.493 0 0 0 27.694 18.9 A 0.405 0.405 0 0 0 27.738 18.918 Q 27.786 18.934 27.65 19.02 A 1.65 1.65 0 0 1 27.612 19.044 A 0.163 0.163 0 0 0 27.57 19.076 Q 27.533 19.113 27.497 19.182 A 1.002 1.002 0 0 0 27.468 19.242 Q 27.401 19.392 27.335 19.465 A 0.349 0.349 0 0 1 27.324 19.476 A 1.427 1.427 0 0 1 27.239 19.529 Q 27.196 19.553 27.157 19.571 A 0.759 0.759 0 0 1 27.126 19.584 Q 27.065 19.608 26.995 19.666 A 0.995 0.995 0 0 0 26.928 19.728 Q 26.689 19.967 26.509 20.03 A 0.369 0.369 0 0 1 26.388 20.052 A 0.263 0.263 0 0 1 26.296 20.037 Q 26.181 19.994 26.173 19.826 A 0.543 0.543 0 0 1 26.172 19.8 A 0.758 0.758 0 0 1 26.187 19.655 Q 26.213 19.526 26.28 19.368 Q 26.568 18.756 26.946 17.64 Q 27.324 16.524 27.9 15.732 Q 28.296 14.94 28.638 14.166 Q 28.98 13.392 29.304 12.6 L 29.25 12.546 Q 29.196 12.492 29.196 12.42 Q 29.019 12.302 28.83 12.099 A 3.413 3.413 0 0 1 28.746 12.006 A 0.637 0.637 0 0 1 28.668 11.896 Q 28.573 11.723 28.644 11.543 A 0.573 0.573 0 0 1 28.692 11.448 A 0.633 0.633 0 0 1 28.721 11.42 Q 28.772 11.376 28.8 11.376 L 28.836 11.376 Q 28.836 11.34 28.818 11.322 L 28.8 11.304 Q 28.8 11.184 28.9 11.139 A 0.261 0.261 0 0 1 28.944 11.124 A 0.479 0.479 0 0 0 28.996 11.108 Q 29.048 11.089 29.07 11.062 A 0.069 0.069 0 0 0 29.088 11.016 A 0.707 0.707 0 0 1 29.332 10.582 Q 29.549 10.388 29.952 10.26 A 6.214 6.214 0 0 1 30.555 10.099 Q 30.988 10.008 31.356 10.008 A 3.176 3.176 0 0 1 31.548 10.013 Q 31.825 10.03 31.919 10.101 A 0.107 0.107 0 0 1 31.968 10.188 Q 31.968 10.247 31.824 10.377 A 2.244 2.244 0 0 1 31.752 10.44 A 0.828 0.828 0 0 0 31.693 10.484 Q 31.585 10.571 31.392 10.764 A 2.835 2.835 0 0 0 31.12 11.082 A 3.637 3.637 0 0 0 30.924 11.376 Z M 41.112 14.22 A 3.669 3.669 0 0 0 41.481 14.175 Q 41.922 14.1 42.516 13.914 Q 43.38 13.644 43.956 13.176 A 2.11 2.11 0 0 0 44.279 12.85 Q 44.463 12.614 44.53 12.357 A 1.178 1.178 0 0 0 44.568 12.06 A 1.174 1.174 0 0 0 44.405 11.476 Q 44.305 11.298 44.143 11.125 A 2.701 2.701 0 0 0 43.956 10.944 A 4.879 4.879 0 0 0 43.565 11.257 Q 43.229 11.554 42.858 11.97 A 20.203 20.203 0 0 0 42.165 12.788 A 16.649 16.649 0 0 0 41.796 13.266 A 51.083 51.083 0 0 0 41.578 13.562 Q 41.369 13.847 41.227 14.051 A 10.603 10.603 0 0 0 41.112 14.22 Z M 2.124 22.716 L 2.124 22.68 A 2.845 2.845 0 0 1 2.041 22.441 A 3.503 3.503 0 0 1 1.998 22.284 Q 1.944 22.068 1.872 21.888 L 1.836 21.888 Q 1.697 21.61 1.642 20.878 A 9.431 9.431 0 0 1 1.638 20.826 Q 1.586 20.081 1.584 19.719 A 5.098 5.098 0 0 1 1.584 19.692 Q 1.554 19.84 1.464 20.206 A 51.62 51.62 0 0 1 1.422 20.376 Q 1.296 20.88 1.206 21.366 A 14.58 14.58 0 0 0 1.171 21.562 Q 1.116 21.884 1.116 21.996 A 1.159 1.159 0 0 0 1.033 22.056 Q 0.9 22.163 0.9 22.248 A 0.209 0.209 0 0 0 0.919 22.334 Q 0.932 22.363 0.954 22.392 Q 1.005 22.46 1.039 22.559 A 0.89 0.89 0 0 1 1.044 22.572 A 4.405 4.405 0 0 0 1.057 22.923 Q 1.118 23.688 1.476 23.688 Q 1.616 23.688 1.788 23.623 A 1.557 1.557 0 0 0 1.89 23.58 A 32.358 32.358 0 0 1 2.078 23.494 Q 2.162 23.456 2.254 23.414 A 60.305 60.305 0 0 1 2.448 23.328 Q 2.42 23.273 2.414 23.239 A 0.102 0.102 0 0 1 2.412 23.22 Q 2.412 23.184 2.34 23.148 A 1.64 1.64 0 0 0 2.257 22.946 A 1.798 1.798 0 0 0 2.25 22.932 A 1.981 1.981 0 0 0 2.144 22.746 A 2.212 2.212 0 0 0 2.124 22.716 Z M 31.14 7.488 L 31.32 7.344 L 31.32 7.38 L 31.464 7.2 L 31.536 7.2 Q 31.713 7.2 31.805 7.055 A 0.464 0.464 0 0 0 31.842 6.984 Q 31.918 6.802 32.161 6.722 A 1.002 1.002 0 0 1 32.256 6.696 A 0.602 0.602 0 0 1 32.334 6.675 Q 32.499 6.644 32.616 6.732 A 0.529 0.529 0 0 0 32.836 6.827 A 0.734 0.734 0 0 0 32.976 6.84 A 0.755 0.755 0 0 0 33.186 6.808 Q 33.31 6.773 33.444 6.696 L 33.984 6.588 Q 34.088 6.588 34.092 6.655 A 0.091 0.091 0 0 1 34.092 6.66 A 0.077 0.077 0 0 1 34.077 6.702 Q 34.038 6.761 33.894 6.84 Q 33.742 6.923 33.664 6.985 A 0.471 0.471 0 0 0 33.624 7.02 L 33.588 7.056 L 33.552 7.128 L 33.408 7.308 A 15.27 15.27 0 0 0 33.209 7.546 Q 33.108 7.669 32.997 7.808 A 26.985 26.985 0 0 0 32.922 7.902 Q 32.652 8.244 32.364 8.46 Q 32.128 8.644 31.968 8.693 A 0.367 0.367 0 0 1 31.86 8.712 A 0.307 0.307 0 0 1 31.672 8.648 A 0.386 0.386 0 0 1 31.662 8.64 A 5.785 5.785 0 0 0 31.614 8.602 Q 31.536 8.541 31.428 8.46 Q 31.366 8.429 31.291 8.385 A 3.394 3.394 0 0 1 31.266 8.37 Q 31.185 8.322 31.177 8.201 A 0.418 0.418 0 0 1 31.176 8.172 A 0.092 0.092 0 0 0 31.146 8.153 Q 31.106 8.136 31.032 8.136 A 0.179 0.179 0 0 1 30.945 8.116 Q 30.872 8.076 30.856 7.955 A 0.559 0.559 0 0 1 30.852 7.884 A 0.439 0.439 0 0 1 30.885 7.711 Q 30.949 7.56 31.14 7.488 Z" vector-effect="non-scaling-stroke"/></g></svg>